<svg width="121" height="24" viewBox="0 0 121 24" fill="none" xmlns="http://www.w3.org/2000/svg">
<path d="M1.59091 2C0.712274 2 0 2.71227 0 3.59091C0 4.46954 0.712274 5.18182 1.59091 5.18182C2.46954 5.18182 3.18182 4.46954 3.18182 3.59091C3.18182 2.71227 2.46954 2 1.59091 2Z" fill="white"/>
<path d="M7.24753 2C6.36889 2 5.65662 2.71227 5.65662 3.59091C5.65662 4.46954 6.36889 5.18182 7.24753 5.18182C8.12616 5.18182 8.83843 4.46954 8.83843 3.59091C8.83843 2.71227 8.12616 2 7.24753 2Z" fill="white"/>
<path d="M12.904 2C12.0254 2 11.3131 2.71227 11.3131 3.59091C11.3131 4.46954 12.0254 5.18182 12.904 5.18182C13.7827 5.18182 14.4949 4.46954 14.4949 3.59091C14.4949 2.71227 13.7827 2 12.904 2Z" fill="white"/>
<path d="M18.4091 2C17.5305 2 16.8182 2.71227 16.8182 3.59091C16.8182 4.46954 17.5305 5.18182 18.4091 5.18182C19.2877 5.18182 20 4.46954 20 3.59091C20 2.71227 19.2877 2 18.4091 2Z" fill="white"/>
<path d="M1.59091 7.65656C0.712274 7.65656 0 8.36883 0 9.24746C0 10.1261 0.712274 10.8384 1.59091 10.8384C2.46954 10.8384 3.18182 10.1261 3.18182 9.24746C3.18182 8.36883 2.46954 7.65656 1.59091 7.65656Z" fill="white" fill-opacity="0.9"/>
<path d="M7.24753 7.65656C6.36889 7.65656 5.65662 8.36883 5.65662 9.24746C5.65662 10.1261 6.36889 10.8384 7.24753 10.8384C8.12616 10.8384 8.83843 10.1261 8.83843 9.24746C8.83843 8.36883 8.12616 7.65656 7.24753 7.65656Z" fill="white"/>
<path d="M12.904 7.65656C12.0254 7.65656 11.3131 8.36883 11.3131 9.24746C11.3131 10.1261 12.0254 10.8384 12.904 10.8384C13.7827 10.8384 14.4949 10.1261 14.4949 9.24746C14.4949 8.36883 13.7827 7.65656 12.904 7.65656Z" fill="white"/>
<path d="M18.4091 7.45453C17.5305 7.45453 16.8182 8.1668 16.8182 9.04544C16.8182 9.92407 17.5305 10.6363 18.4091 10.6363C19.2877 10.6363 20 9.92407 20 9.04544C20 8.1668 19.2877 7.45453 18.4091 7.45453Z" fill="white" fill-opacity="0.9"/>
<path d="M1.59091 13.3131C0.712274 13.3131 0 14.0254 0 14.904C0 15.7827 0.712274 16.4949 1.59091 16.4949C2.46954 16.4949 3.18182 15.7827 3.18182 14.904C3.18182 14.0254 2.46954 13.3131 1.59091 13.3131Z" fill="white" fill-opacity="0.9"/>
<path d="M1.59091 18.8182C0.712274 18.8182 0 19.5305 0 20.4091C0 21.2877 0.712274 22 1.59091 22C2.46954 22 3.18182 21.2877 3.18182 20.4091C3.18182 19.5305 2.46954 18.8182 1.59091 18.8182Z" fill="white" fill-opacity="0.9"/>
<path d="M7.0455 18.8182C6.16686 18.8182 5.45459 19.5305 5.45459 20.4091C5.45459 21.2877 6.16686 22 7.0455 22C7.92413 22 8.63641 21.2877 8.63641 20.4091C8.63641 19.5305 7.92413 18.8182 7.0455 18.8182Z" fill="white" fill-opacity="0.9"/>
<path d="M12.9546 18.8182C12.0759 18.8182 11.3636 19.5305 11.3636 20.4091C11.3636 21.2877 12.0759 22 12.9546 22C13.8332 22 14.5455 21.2877 14.5455 20.4091C14.5455 19.5305 13.8332 18.8182 12.9546 18.8182Z" fill="white" fill-opacity="0.9"/>
<path d="M18.4091 18.8182C17.5305 18.8182 16.8182 19.5305 16.8182 20.4091C16.8182 21.2877 17.5305 22 18.4091 22C19.2877 22 20 21.2877 20 20.4091C20 19.5305 19.2877 18.8182 18.4091 18.8182Z" fill="white" fill-opacity="0.9"/>
<path d="M7.24753 13.3131C6.36889 13.3131 5.65662 14.0254 5.65662 14.904C5.65662 15.7827 6.36889 16.4949 7.24753 16.4949C8.12616 16.4949 8.83843 15.7827 8.83843 14.904C8.83843 14.0254 8.12616 13.3131 7.24753 13.3131Z" fill="white" fill-opacity="0.9"/>
<path d="M12.904 13.3131C12.0254 13.3131 11.3131 14.0254 11.3131 14.904C11.3131 15.7827 12.0254 16.4949 12.904 16.4949C13.7827 16.4949 14.4949 15.7827 14.4949 14.904C14.4949 14.0254 13.7827 13.3131 12.904 13.3131Z" fill="white" fill-opacity="0.9"/>
<path d="M18.4091 13.3636C17.5305 13.3636 16.8182 14.0759 16.8182 14.9546C16.8182 15.8332 17.5305 16.5455 18.4091 16.5455C19.2877 16.5455 20 15.8332 20 14.9546C20 14.0759 19.2877 13.3636 18.4091 13.3636Z" fill="white" fill-opacity="0.9"/>
<path d="M39.098 9.54688H35.9872C35.9304 9.14441 35.8144 8.78693 35.6392 8.47443C35.464 8.1572 35.2391 7.88731 34.9645 7.66477C34.6899 7.44223 34.3726 7.27178 34.0128 7.15341C33.6577 7.03504 33.2718 6.97585 32.8551 6.97585C32.1023 6.97585 31.4465 7.16288 30.8878 7.53693C30.3291 7.90625 29.8958 8.44602 29.5881 9.15625C29.2803 9.86174 29.1264 10.7187 29.1264 11.7273C29.1264 12.7642 29.2803 13.6354 29.5881 14.3409C29.9006 15.0464 30.3362 15.5791 30.8949 15.9389C31.4536 16.2988 32.0999 16.4787 32.8338 16.4787C33.2457 16.4787 33.6269 16.4242 33.9773 16.3153C34.3324 16.2064 34.6473 16.0478 34.9219 15.8395C35.1965 15.6264 35.4238 15.3684 35.6037 15.0653C35.7884 14.7623 35.9162 14.4167 35.9872 14.0284L39.098 14.0426C39.0175 14.7102 38.8163 15.3542 38.4943 15.9744C38.1771 16.59 37.7486 17.1416 37.2088 17.6293C36.6738 18.1122 36.0346 18.4957 35.2912 18.7798C34.5526 19.0592 33.7169 19.1989 32.7841 19.1989C31.4867 19.1989 30.3267 18.9053 29.304 18.3182C28.286 17.7311 27.4811 16.8812 26.8892 15.7685C26.3021 14.6558 26.0085 13.3087 26.0085 11.7273C26.0085 10.1411 26.3068 8.79167 26.9034 7.67898C27.5 6.56629 28.3097 5.71875 29.3324 5.13636C30.3551 4.54924 31.5057 4.25568 32.7841 4.25568C33.6269 4.25568 34.4081 4.37405 35.1278 4.6108C35.8523 4.84754 36.4938 5.19318 37.0526 5.64773C37.6113 6.09754 38.0658 6.64915 38.4162 7.30256C38.7713 7.95597 38.9986 8.70407 39.098 9.54688ZM44.3972 19.206C43.7012 19.206 43.081 19.0852 42.5364 18.8438C41.9919 18.5975 41.5611 18.2353 41.2438 17.7571C40.9313 17.2741 40.7751 16.6728 40.7751 15.9531C40.7751 15.3471 40.8864 14.8381 41.1089 14.4261C41.3314 14.0142 41.6345 13.6828 42.018 13.4318C42.4015 13.1809 42.8371 12.9915 43.3248 12.8636C43.8172 12.7358 44.3333 12.6458 44.8731 12.5938C45.5076 12.5275 46.0189 12.4659 46.4072 12.4091C46.7954 12.3475 47.0772 12.2576 47.2524 12.1392C47.4275 12.0208 47.5151 11.8456 47.5151 11.6136V11.571C47.5151 11.1212 47.3731 10.7732 47.089 10.527C46.8096 10.2808 46.4119 10.1577 45.8958 10.1577C45.3513 10.1577 44.9181 10.2784 44.5961 10.5199C44.2741 10.7566 44.0611 11.0549 43.9569 11.4148L41.1586 11.1875C41.3007 10.5246 41.58 9.9517 41.9967 9.46875C42.4133 8.98106 42.9507 8.60701 43.6089 8.34659C44.2718 8.08144 45.0388 7.94886 45.91 7.94886C46.5161 7.94886 47.0961 8.01989 47.6501 8.16193C48.2088 8.30398 48.7036 8.52415 49.1345 8.82244C49.5701 9.12074 49.9133 9.50426 50.1643 9.97301C50.4152 10.437 50.5407 10.9934 50.5407 11.642V19H47.6714V17.4872H47.5862C47.411 17.8281 47.1766 18.1288 46.883 18.3892C46.5895 18.6449 46.2367 18.8461 45.8248 18.9929C45.4129 19.1349 44.937 19.206 44.3972 19.206ZM45.2637 17.1179C45.7088 17.1179 46.1018 17.0303 46.4427 16.8551C46.7836 16.6752 47.0511 16.4337 47.2453 16.1307C47.4394 15.8277 47.5364 15.4844 47.5364 15.1009V13.9432C47.4418 14.0047 47.3115 14.0616 47.1458 14.1136C46.9848 14.161 46.8025 14.206 46.5989 14.2486C46.3954 14.2865 46.1918 14.322 45.9882 14.3551C45.7846 14.3835 45.5999 14.4096 45.4342 14.4332C45.0791 14.4853 44.7689 14.5682 44.5038 14.6818C44.2386 14.7955 44.0327 14.9493 43.8859 15.1435C43.7391 15.3329 43.6657 15.5696 43.6657 15.8537C43.6657 16.2656 43.8149 16.5805 44.1132 16.7983C44.4162 17.0114 44.7997 17.1179 45.2637 17.1179ZM52.9848 19V4.45455H56.0104V9.9233H56.1027C56.2353 9.62973 56.4271 9.33144 56.678 9.02841C56.9337 8.72064 57.2651 8.46496 57.6723 8.26136C58.0843 8.05303 58.5956 7.94886 59.2064 7.94886C60.0019 7.94886 60.7358 8.1572 61.4081 8.57386C62.0805 8.9858 62.6179 9.60843 63.0203 10.4418C63.4228 11.2704 63.624 12.3097 63.624 13.5597C63.624 14.7765 63.4275 15.804 63.0345 16.642C62.6463 17.4754 62.116 18.1075 61.4436 18.5384C60.776 18.9645 60.0279 19.1776 59.1993 19.1776C58.6122 19.1776 58.1127 19.0805 57.7007 18.8864C57.2935 18.6922 56.9597 18.4484 56.6993 18.1548C56.4389 17.8565 56.24 17.5559 56.1027 17.2528H55.9678V19H52.9848ZM55.9465 13.5455C55.9465 14.1941 56.0364 14.7599 56.2164 15.2429C56.3963 15.7259 56.6567 16.1023 56.9976 16.3722C57.3385 16.6373 57.7528 16.7699 58.2405 16.7699C58.7329 16.7699 59.1496 16.6349 59.4905 16.3651C59.8314 16.0904 60.0895 15.7116 60.2647 15.2287C60.4446 14.741 60.5345 14.1799 60.5345 13.5455C60.5345 12.9157 60.447 12.3617 60.2718 11.8835C60.0966 11.4053 59.8385 11.0312 59.4976 10.7614C59.1567 10.4915 58.7377 10.3565 58.2405 10.3565C57.7481 10.3565 57.3314 10.4867 56.9905 10.7472C56.6543 11.0076 56.3963 11.3769 56.2164 11.8551C56.0364 12.3333 55.9465 12.8968 55.9465 13.5455ZM68.7936 19.206C68.0976 19.206 67.4774 19.0852 66.9329 18.8438C66.3883 18.5975 65.9575 18.2353 65.6402 17.7571C65.3277 17.2741 65.1715 16.6728 65.1715 15.9531C65.1715 15.3471 65.2828 14.8381 65.5053 14.4261C65.7278 14.0142 66.0309 13.6828 66.4144 13.4318C66.7979 13.1809 67.2335 12.9915 67.7212 12.8636C68.2136 12.7358 68.7297 12.6458 69.2695 12.5938C69.904 12.5275 70.4153 12.4659 70.8036 12.4091C71.1919 12.3475 71.4736 12.2576 71.6488 12.1392C71.824 12.0208 71.9115 11.8456 71.9115 11.6136V11.571C71.9115 11.1212 71.7695 10.7732 71.4854 10.527C71.2061 10.2808 70.8083 10.1577 70.2922 10.1577C69.7477 10.1577 69.3145 10.2784 68.9925 10.5199C68.6705 10.7566 68.4575 11.0549 68.3533 11.4148L65.555 11.1875C65.6971 10.5246 65.9764 9.9517 66.3931 9.46875C66.8097 8.98106 67.3472 8.60701 68.0053 8.34659C68.6682 8.08144 69.4352 7.94886 70.3064 7.94886C70.9125 7.94886 71.4925 8.01989 72.0465 8.16193C72.6052 8.30398 73.1 8.52415 73.5309 8.82244C73.9665 9.12074 74.3097 9.50426 74.5607 9.97301C74.8116 10.437 74.9371 10.9934 74.9371 11.642V19H72.0678V17.4872H71.9826C71.8074 17.8281 71.573 18.1288 71.2794 18.3892C70.9859 18.6449 70.6331 18.8461 70.2212 18.9929C69.8093 19.1349 69.3334 19.206 68.7936 19.206ZM69.6601 17.1179C70.1052 17.1179 70.4982 17.0303 70.8391 16.8551C71.18 16.6752 71.4475 16.4337 71.6417 16.1307C71.8358 15.8277 71.9329 15.4844 71.9329 15.1009V13.9432C71.8382 14.0047 71.7079 14.0616 71.5422 14.1136C71.3812 14.161 71.199 14.206 70.9954 14.2486C70.7918 14.2865 70.5882 14.322 70.3846 14.3551C70.181 14.3835 69.9963 14.4096 69.8306 14.4332C69.4755 14.4853 69.1653 14.5682 68.9002 14.6818C68.635 14.7955 68.4291 14.9493 68.2823 15.1435C68.1355 15.3329 68.0621 15.5696 68.0621 15.8537C68.0621 16.2656 68.2113 16.5805 68.5096 16.7983C68.8126 17.0114 69.1961 17.1179 69.6601 17.1179ZM80.35 12.6932V19H77.3244V8.09091H80.2079V10.0156H80.3358C80.5773 9.38116 80.9821 8.87926 81.5503 8.50994C82.1185 8.13589 82.8074 7.94886 83.617 7.94886C84.3746 7.94886 85.0351 8.11458 85.5986 8.44602C86.162 8.77746 86.6 9.25095 86.9125 9.86648C87.225 10.4773 87.3812 11.2064 87.3812 12.054V19H84.3557V12.5938C84.3604 11.9261 84.1899 11.4053 83.8443 11.0312C83.4987 10.6525 83.0228 10.4631 82.4167 10.4631C82.0096 10.4631 81.6497 10.5507 81.3372 10.7259C81.0294 10.901 80.788 11.1567 80.6128 11.4929C80.4423 11.8243 80.3547 12.2244 80.35 12.6932ZM92.9166 19.206C92.2206 19.206 91.6003 19.0852 91.0558 18.8438C90.5113 18.5975 90.0804 18.2353 89.7632 17.7571C89.4507 17.2741 89.2945 16.6728 89.2945 15.9531C89.2945 15.3471 89.4057 14.8381 89.6283 14.4261C89.8508 14.0142 90.1538 13.6828 90.5374 13.4318C90.9209 13.1809 91.3565 12.9915 91.8442 12.8636C92.3366 12.7358 92.8527 12.6458 93.3925 12.5938C94.0269 12.5275 94.5383 12.4659 94.9266 12.4091C95.3148 12.3475 95.5965 12.2576 95.7717 12.1392C95.9469 12.0208 96.0345 11.8456 96.0345 11.6136V11.571C96.0345 11.1212 95.8925 10.7732 95.6084 10.527C95.329 10.2808 94.9313 10.1577 94.4152 10.1577C93.8707 10.1577 93.4375 10.2784 93.1155 10.5199C92.7935 10.7566 92.5804 11.0549 92.4763 11.4148L89.678 11.1875C89.82 10.5246 90.0994 9.9517 90.5161 9.46875C90.9327 8.98106 91.4701 8.60701 92.1283 8.34659C92.7911 8.08144 93.5582 7.94886 94.4294 7.94886C95.0355 7.94886 95.6155 8.01989 96.1695 8.16193C96.7282 8.30398 97.223 8.52415 97.6538 8.82244C98.0894 9.12074 98.4327 9.50426 98.6837 9.97301C98.9346 10.437 99.0601 10.9934 99.0601 11.642V19H96.1908V17.4872H96.1055C95.9304 17.8281 95.696 18.1288 95.4024 18.3892C95.1089 18.6449 94.7561 18.8461 94.3442 18.9929C93.9322 19.1349 93.4564 19.206 92.9166 19.206ZM93.7831 17.1179C94.2282 17.1179 94.6212 17.0303 94.9621 16.8551C95.303 16.6752 95.5705 16.4337 95.7646 16.1307C95.9588 15.8277 96.0558 15.4844 96.0558 15.1009V13.9432C95.9611 14.0047 95.8309 14.0616 95.6652 14.1136C95.5042 14.161 95.3219 14.206 95.1183 14.2486C94.9147 14.2865 94.7111 14.322 94.5075 14.3551C94.3039 14.3835 94.1193 14.4096 93.9536 14.4332C93.5984 14.4853 93.2883 14.5682 93.0232 14.6818C92.758 14.7955 92.552 14.9493 92.4053 15.1435C92.2585 15.3329 92.1851 15.5696 92.1851 15.8537C92.1851 16.2656 92.3342 16.5805 92.6325 16.7983C92.9356 17.0114 93.3191 17.1179 93.7831 17.1179ZM110.489 4.45455H113.564V13.9006C113.564 14.9612 113.311 15.8892 112.804 16.6847C112.302 17.4801 111.599 18.1004 110.695 18.5455C109.79 18.9858 108.737 19.206 107.534 19.206C106.327 19.206 105.271 18.9858 104.366 18.5455C103.462 18.1004 102.759 17.4801 102.257 16.6847C101.755 15.8892 101.504 14.9612 101.504 13.9006V4.45455H104.579V13.6378C104.579 14.1918 104.7 14.6842 104.942 15.1151C105.188 15.5459 105.534 15.8845 105.979 16.1307C106.424 16.3769 106.942 16.5 107.534 16.5C108.131 16.5 108.649 16.3769 109.089 16.1307C109.535 15.8845 109.878 15.5459 110.119 15.1151C110.365 14.6842 110.489 14.1918 110.489 13.6378V4.45455ZM119.209 4.45455V19H116.134V4.45455H119.209Z" fill="#FAFAFA"/>
</svg>
