<svg width="32" height="32" viewBox="0 0 32 32" fill="none" xmlns="http://www.w3.org/2000/svg">
<path d="M3.55556 0C1.59188 0 0 1.59188 0 3.55556C0 5.51923 1.59188 7.11111 3.55556 7.11111C5.51923 7.11111 7.11111 5.51923 7.11111 3.55556C7.11111 1.59188 5.51923 0 3.55556 0Z" fill="white"/>
<path d="M16 0C14.0363 0 12.4445 1.59188 12.4445 3.55556C12.4445 5.51923 14.0363 7.11111 16 7.11111C17.9637 7.11111 19.5556 5.51923 19.5556 3.55556C19.5556 1.59188 17.9637 0 16 0Z" fill="white"/>
<path d="M28.4445 0C26.4808 0 24.8889 1.59188 24.8889 3.55556C24.8889 5.51923 26.4808 7.11111 28.4445 7.11111C30.4082 7.11111 32 5.51923 32 3.55556C32 1.59188 30.4082 0 28.4445 0Z" fill="white"/>
<path d="M3.55556 12.4445C1.59188 12.4445 0 14.0363 0 16C0 17.9637 1.59188 19.5556 3.55556 19.5556C5.51923 19.5556 7.11111 17.9637 7.11111 16C7.11111 14.0363 5.51923 12.4445 3.55556 12.4445Z" fill="white"/>
<path d="M16 12.4445C14.0363 12.4445 12.4445 14.0363 12.4445 16C12.4445 17.9637 14.0363 19.5556 16 19.5556C17.9637 19.5556 19.5556 17.9637 19.5556 16C19.5556 14.0363 17.9637 12.4445 16 12.4445Z" fill="white"/>
<path d="M28.4445 12.4445C26.4808 12.4445 24.8889 14.0363 24.8889 16C24.8889 17.9637 26.4808 19.5556 28.4445 19.5556C30.4082 19.5556 32 17.9637 32 16C32 14.0363 30.4082 12.4445 28.4445 12.4445Z" fill="white"/>
<path d="M3.55556 24.8889C1.59188 24.8889 0 26.4808 0 28.4444C0 30.4081 1.59188 32 3.55556 32C5.51923 32 7.11111 30.4081 7.11111 28.4444C7.11111 26.4808 5.51923 24.8889 3.55556 24.8889Z" fill="white"/>
<path d="M16 24.8889C14.0363 24.8889 12.4445 26.4808 12.4445 28.4444C12.4445 30.4081 14.0363 32 16 32C17.9637 32 19.5556 30.4081 19.5556 28.4444C19.5556 26.4808 17.9637 24.8889 16 24.8889Z" fill="white"/>
<path d="M28.4445 24.8889C26.4808 24.8889 24.8889 26.4808 24.8889 28.4444C24.8889 30.4081 26.4808 32 28.4445 32C30.4082 32 32 30.4081 32 28.4444C32 26.4808 30.4082 24.8889 28.4445 24.8889Z" fill="white"/>
</svg>
