<svg xmlns="http://www.w3.org/2000/svg" version="1.1" xmlns:xlink="http://www.w3.org/1999/xlink" xmlns:svgjs="http://svgjs.dev/svgjs" viewBox="0 0 800 800" opacity="0.53" width="800" height="800"><g stroke-width="0.5" stroke="hsla(0, 0%, 64%, 1.00)" fill="none"><line x1="0" y1="0" x2="44.44444444444444" y2="44.44444444444444"></line><line x1="44.44444444444444" y1="0" x2="0" y2="44.44444444444444"></line><line x1="44.44444444444444" y1="0" x2="88.88888888888889" y2="44.44444444444444"></line><line x1="88.88888888888889" y1="0" x2="44.44444444444444" y2="44.44444444444444"></line><line x1="88.88888888888889" y1="0" x2="133.33333333333331" y2="44.44444444444444"></line><line x1="133.33333333333331" y1="0" x2="88.88888888888889" y2="44.44444444444444"></line><line x1="133.33333333333331" y1="0" x2="177.77777777777777" y2="44.44444444444444"></line><line x1="177.77777777777777" y1="0" x2="133.33333333333331" y2="44.44444444444444"></line><line x1="177.77777777777777" y1="0" x2="222.22222222222223" y2="44.44444444444444"></line><line x1="222.22222222222223" y1="0" x2="177.77777777777777" y2="44.44444444444444"></line><line x1="222.22222222222223" y1="0" x2="266.6666666666667" y2="44.44444444444444"></line><line x1="266.6666666666667" y1="0" x2="222.22222222222223" y2="44.44444444444444"></line><line x1="266.6666666666667" y1="0" x2="311.11111111111114" y2="44.44444444444444"></line><line x1="311.11111111111114" y1="0" x2="266.6666666666667" y2="44.44444444444444"></line><line x1="311.11111111111114" y1="0" x2="355.5555555555556" y2="44.44444444444444"></line><line x1="355.5555555555556" y1="0" x2="311.11111111111114" y2="44.44444444444444"></line><line x1="355.5555555555556" y1="0" x2="400.00000000000006" y2="44.44444444444444"></line><line x1="400.00000000000006" y1="0" x2="355.5555555555556" y2="44.44444444444444"></line><line x1="400.00000000000006" y1="0" x2="444.4444444444445" y2="44.44444444444444"></line><line x1="444.4444444444445" y1="0" x2="400.00000000000006" y2="44.44444444444444"></line><line x1="444.4444444444445" y1="0" x2="488.88888888888897" y2="44.44444444444444"></line><line x1="488.88888888888897" y1="0" x2="444.4444444444445" y2="44.44444444444444"></line><line x1="488.88888888888897" y1="0" x2="533.3333333333334" y2="44.44444444444444"></line><line x1="533.3333333333334" y1="0" x2="488.88888888888897" y2="44.44444444444444"></line><line x1="533.3333333333334" y1="0" x2="577.7777777777778" y2="44.44444444444444"></line><line x1="577.7777777777778" y1="0" x2="533.3333333333334" y2="44.44444444444444"></line><line x1="577.7777777777778" y1="0" x2="622.2222222222223" y2="44.44444444444444"></line><line x1="622.2222222222223" y1="0" x2="577.7777777777778" y2="44.44444444444444"></line><line x1="622.2222222222223" y1="0" x2="666.6666666666667" y2="44.44444444444444"></line><line x1="666.6666666666667" y1="0" x2="622.2222222222223" y2="44.44444444444444"></line><line x1="666.6666666666667" y1="0" x2="711.1111111111112" y2="44.44444444444444"></line><line x1="711.1111111111112" y1="0" x2="666.6666666666667" y2="44.44444444444444"></line><line x1="711.1111111111112" y1="0" x2="755.5555555555557" y2="44.44444444444444"></line><line x1="755.5555555555557" y1="0" x2="711.1111111111112" y2="44.44444444444444"></line><line x1="755.5555555555557" y1="0" x2="800.0000000000001" y2="44.44444444444444"></line><line x1="800.0000000000001" y1="0" x2="755.5555555555557" y2="44.44444444444444"></line><line x1="800.0000000000001" y1="0" x2="844.4444444444446" y2="44.44444444444444"></line><line x1="844.4444444444446" y1="0" x2="800.0000000000001" y2="44.44444444444444"></line><line x1="0" y1="44.44444444444444" x2="44.44444444444444" y2="88.88888888888889"></line><line x1="44.44444444444444" y1="44.44444444444444" x2="0" y2="88.88888888888889"></line><line x1="44.44444444444444" y1="44.44444444444444" x2="88.88888888888889" y2="88.88888888888889"></line><line x1="88.88888888888889" y1="44.44444444444444" x2="44.44444444444444" y2="88.88888888888889"></line><line x1="88.88888888888889" y1="44.44444444444444" x2="133.33333333333331" y2="88.88888888888889"></line><line x1="133.33333333333331" y1="44.44444444444444" x2="88.88888888888889" y2="88.88888888888889"></line><line x1="133.33333333333331" y1="44.44444444444444" x2="177.77777777777777" y2="88.88888888888889"></line><line x1="177.77777777777777" y1="44.44444444444444" x2="133.33333333333331" y2="88.88888888888889"></line><line x1="177.77777777777777" y1="44.44444444444444" x2="222.22222222222223" y2="88.88888888888889"></line><line x1="222.22222222222223" y1="44.44444444444444" x2="177.77777777777777" y2="88.88888888888889"></line><line x1="222.22222222222223" y1="44.44444444444444" x2="266.6666666666667" y2="88.88888888888889"></line><line x1="266.6666666666667" y1="44.44444444444444" x2="222.22222222222223" y2="88.88888888888889"></line><line x1="266.6666666666667" y1="44.44444444444444" x2="311.11111111111114" y2="88.88888888888889"></line><line x1="311.11111111111114" y1="44.44444444444444" x2="266.6666666666667" y2="88.88888888888889"></line><line x1="311.11111111111114" y1="44.44444444444444" x2="355.5555555555556" y2="88.88888888888889"></line><line x1="355.5555555555556" y1="44.44444444444444" x2="311.11111111111114" y2="88.88888888888889"></line><line x1="355.5555555555556" y1="44.44444444444444" x2="400.00000000000006" y2="88.88888888888889"></line><line x1="400.00000000000006" y1="44.44444444444444" x2="355.5555555555556" y2="88.88888888888889"></line><line x1="400.00000000000006" y1="44.44444444444444" x2="444.4444444444445" y2="88.88888888888889"></line><line x1="444.4444444444445" y1="44.44444444444444" x2="400.00000000000006" y2="88.88888888888889"></line><line x1="444.4444444444445" y1="44.44444444444444" x2="488.88888888888897" y2="88.88888888888889"></line><line x1="488.88888888888897" y1="44.44444444444444" x2="444.4444444444445" y2="88.88888888888889"></line><line x1="488.88888888888897" y1="44.44444444444444" x2="533.3333333333334" y2="88.88888888888889"></line><line x1="533.3333333333334" y1="44.44444444444444" x2="488.88888888888897" y2="88.88888888888889"></line><line x1="533.3333333333334" y1="44.44444444444444" x2="577.7777777777778" y2="88.88888888888889"></line><line x1="577.7777777777778" y1="44.44444444444444" x2="533.3333333333334" y2="88.88888888888889"></line><line x1="577.7777777777778" y1="44.44444444444444" x2="622.2222222222223" y2="88.88888888888889"></line><line x1="622.2222222222223" y1="44.44444444444444" x2="577.7777777777778" y2="88.88888888888889"></line><line x1="622.2222222222223" y1="44.44444444444444" x2="666.6666666666667" y2="88.88888888888889"></line><line x1="666.6666666666667" y1="44.44444444444444" x2="622.2222222222223" y2="88.88888888888889"></line><line x1="666.6666666666667" y1="44.44444444444444" x2="711.1111111111112" y2="88.88888888888889"></line><line x1="711.1111111111112" y1="44.44444444444444" x2="666.6666666666667" y2="88.88888888888889"></line><line x1="711.1111111111112" y1="44.44444444444444" x2="755.5555555555557" y2="88.88888888888889"></line><line x1="755.5555555555557" y1="44.44444444444444" x2="711.1111111111112" y2="88.88888888888889"></line><line x1="755.5555555555557" y1="44.44444444444444" x2="800.0000000000001" y2="88.88888888888889"></line><line x1="800.0000000000001" y1="44.44444444444444" x2="755.5555555555557" y2="88.88888888888889"></line><line x1="800.0000000000001" y1="44.44444444444444" x2="844.4444444444446" y2="88.88888888888889"></line><line x1="844.4444444444446" y1="44.44444444444444" x2="800.0000000000001" y2="88.88888888888889"></line><line x1="0" y1="88.88888888888889" x2="44.44444444444444" y2="133.33333333333331"></line><line x1="44.44444444444444" y1="88.88888888888889" x2="0" y2="133.33333333333331"></line><line x1="44.44444444444444" y1="88.88888888888889" x2="88.88888888888889" y2="133.33333333333331"></line><line x1="88.88888888888889" y1="88.88888888888889" x2="44.44444444444444" y2="133.33333333333331"></line><line x1="88.88888888888889" y1="88.88888888888889" x2="133.33333333333331" y2="133.33333333333331"></line><line x1="133.33333333333331" y1="88.88888888888889" x2="88.88888888888889" y2="133.33333333333331"></line><line x1="133.33333333333331" y1="88.88888888888889" x2="177.77777777777777" y2="133.33333333333331"></line><line x1="177.77777777777777" y1="88.88888888888889" x2="133.33333333333331" y2="133.33333333333331"></line><line x1="177.77777777777777" y1="88.88888888888889" x2="222.22222222222223" y2="133.33333333333331"></line><line x1="222.22222222222223" y1="88.88888888888889" x2="177.77777777777777" y2="133.33333333333331"></line><line x1="222.22222222222223" y1="88.88888888888889" x2="266.6666666666667" y2="133.33333333333331"></line><line x1="266.6666666666667" y1="88.88888888888889" x2="222.22222222222223" y2="133.33333333333331"></line><line x1="266.6666666666667" y1="88.88888888888889" x2="311.11111111111114" y2="133.33333333333331"></line><line x1="311.11111111111114" y1="88.88888888888889" x2="266.6666666666667" y2="133.33333333333331"></line><line x1="311.11111111111114" y1="88.88888888888889" x2="355.5555555555556" y2="133.33333333333331"></line><line x1="355.5555555555556" y1="88.88888888888889" x2="311.11111111111114" y2="133.33333333333331"></line><line x1="355.5555555555556" y1="88.88888888888889" x2="400.00000000000006" y2="133.33333333333331"></line><line x1="400.00000000000006" y1="88.88888888888889" x2="355.5555555555556" y2="133.33333333333331"></line><line x1="400.00000000000006" y1="88.88888888888889" x2="444.4444444444445" y2="133.33333333333331"></line><line x1="444.4444444444445" y1="88.88888888888889" x2="400.00000000000006" y2="133.33333333333331"></line><line x1="444.4444444444445" y1="88.88888888888889" x2="488.88888888888897" y2="133.33333333333331"></line><line x1="488.88888888888897" y1="88.88888888888889" x2="444.4444444444445" y2="133.33333333333331"></line><line x1="488.88888888888897" y1="88.88888888888889" x2="533.3333333333334" y2="133.33333333333331"></line><line x1="533.3333333333334" y1="88.88888888888889" x2="488.88888888888897" y2="133.33333333333331"></line><line x1="533.3333333333334" y1="88.88888888888889" x2="577.7777777777778" y2="133.33333333333331"></line><line x1="577.7777777777778" y1="88.88888888888889" x2="533.3333333333334" y2="133.33333333333331"></line><line x1="577.7777777777778" y1="88.88888888888889" x2="622.2222222222223" y2="133.33333333333331"></line><line x1="622.2222222222223" y1="88.88888888888889" x2="577.7777777777778" y2="133.33333333333331"></line><line x1="622.2222222222223" y1="88.88888888888889" x2="666.6666666666667" y2="133.33333333333331"></line><line x1="666.6666666666667" y1="88.88888888888889" x2="622.2222222222223" y2="133.33333333333331"></line><line x1="666.6666666666667" y1="88.88888888888889" x2="711.1111111111112" y2="133.33333333333331"></line><line x1="711.1111111111112" y1="88.88888888888889" x2="666.6666666666667" y2="133.33333333333331"></line><line x1="711.1111111111112" y1="88.88888888888889" x2="755.5555555555557" y2="133.33333333333331"></line><line x1="755.5555555555557" y1="88.88888888888889" x2="711.1111111111112" y2="133.33333333333331"></line><line x1="755.5555555555557" y1="88.88888888888889" x2="800.0000000000001" y2="133.33333333333331"></line><line x1="800.0000000000001" y1="88.88888888888889" x2="755.5555555555557" y2="133.33333333333331"></line><line x1="800.0000000000001" y1="88.88888888888889" x2="844.4444444444446" y2="133.33333333333331"></line><line x1="844.4444444444446" y1="88.88888888888889" x2="800.0000000000001" y2="133.33333333333331"></line><line x1="0" y1="133.33333333333331" x2="44.44444444444444" y2="177.77777777777777"></line><line x1="44.44444444444444" y1="133.33333333333331" x2="0" y2="177.77777777777777"></line><line x1="44.44444444444444" y1="133.33333333333331" x2="88.88888888888889" y2="177.77777777777777"></line><line x1="88.88888888888889" y1="133.33333333333331" x2="44.44444444444444" y2="177.77777777777777"></line><line x1="88.88888888888889" y1="133.33333333333331" x2="133.33333333333331" y2="177.77777777777777"></line><line x1="133.33333333333331" y1="133.33333333333331" x2="88.88888888888889" y2="177.77777777777777"></line><line x1="133.33333333333331" y1="133.33333333333331" x2="177.77777777777777" y2="177.77777777777777"></line><line x1="177.77777777777777" y1="133.33333333333331" x2="133.33333333333331" y2="177.77777777777777"></line><line x1="177.77777777777777" y1="133.33333333333331" x2="222.22222222222223" y2="177.77777777777777"></line><line x1="222.22222222222223" y1="133.33333333333331" x2="177.77777777777777" y2="177.77777777777777"></line><line x1="222.22222222222223" y1="133.33333333333331" x2="266.6666666666667" y2="177.77777777777777"></line><line x1="266.6666666666667" y1="133.33333333333331" x2="222.22222222222223" y2="177.77777777777777"></line><line x1="266.6666666666667" y1="133.33333333333331" x2="311.11111111111114" y2="177.77777777777777"></line><line x1="311.11111111111114" y1="133.33333333333331" x2="266.6666666666667" y2="177.77777777777777"></line><line x1="311.11111111111114" y1="133.33333333333331" x2="355.5555555555556" y2="177.77777777777777"></line><line x1="355.5555555555556" y1="133.33333333333331" x2="311.11111111111114" y2="177.77777777777777"></line><line x1="355.5555555555556" y1="133.33333333333331" x2="400.00000000000006" y2="177.77777777777777"></line><line x1="400.00000000000006" y1="133.33333333333331" x2="355.5555555555556" y2="177.77777777777777"></line><line x1="400.00000000000006" y1="133.33333333333331" x2="444.4444444444445" y2="177.77777777777777"></line><line x1="444.4444444444445" y1="133.33333333333331" x2="400.00000000000006" y2="177.77777777777777"></line><line x1="444.4444444444445" y1="133.33333333333331" x2="488.88888888888897" y2="177.77777777777777"></line><line x1="488.88888888888897" y1="133.33333333333331" x2="444.4444444444445" y2="177.77777777777777"></line><line x1="488.88888888888897" y1="133.33333333333331" x2="533.3333333333334" y2="177.77777777777777"></line><line x1="533.3333333333334" y1="133.33333333333331" x2="488.88888888888897" y2="177.77777777777777"></line><line x1="533.3333333333334" y1="133.33333333333331" x2="577.7777777777778" y2="177.77777777777777"></line><line x1="577.7777777777778" y1="133.33333333333331" x2="533.3333333333334" y2="177.77777777777777"></line><line x1="577.7777777777778" y1="133.33333333333331" x2="622.2222222222223" y2="177.77777777777777"></line><line x1="622.2222222222223" y1="133.33333333333331" x2="577.7777777777778" y2="177.77777777777777"></line><line x1="622.2222222222223" y1="133.33333333333331" x2="666.6666666666667" y2="177.77777777777777"></line><line x1="666.6666666666667" y1="133.33333333333331" x2="622.2222222222223" y2="177.77777777777777"></line><line x1="666.6666666666667" y1="133.33333333333331" x2="711.1111111111112" y2="177.77777777777777"></line><line x1="711.1111111111112" y1="133.33333333333331" x2="666.6666666666667" y2="177.77777777777777"></line><line x1="711.1111111111112" y1="133.33333333333331" x2="755.5555555555557" y2="177.77777777777777"></line><line x1="755.5555555555557" y1="133.33333333333331" x2="711.1111111111112" y2="177.77777777777777"></line><line x1="755.5555555555557" y1="133.33333333333331" x2="800.0000000000001" y2="177.77777777777777"></line><line x1="800.0000000000001" y1="133.33333333333331" x2="755.5555555555557" y2="177.77777777777777"></line><line x1="800.0000000000001" y1="133.33333333333331" x2="844.4444444444446" y2="177.77777777777777"></line><line x1="844.4444444444446" y1="133.33333333333331" x2="800.0000000000001" y2="177.77777777777777"></line><line x1="0" y1="177.77777777777777" x2="44.44444444444444" y2="222.22222222222223"></line><line x1="44.44444444444444" y1="177.77777777777777" x2="0" y2="222.22222222222223"></line><line x1="44.44444444444444" y1="177.77777777777777" x2="88.88888888888889" y2="222.22222222222223"></line><line x1="88.88888888888889" y1="177.77777777777777" x2="44.44444444444444" y2="222.22222222222223"></line><line x1="88.88888888888889" y1="177.77777777777777" x2="133.33333333333331" y2="222.22222222222223"></line><line x1="133.33333333333331" y1="177.77777777777777" x2="88.88888888888889" y2="222.22222222222223"></line><line x1="133.33333333333331" y1="177.77777777777777" x2="177.77777777777777" y2="222.22222222222223"></line><line x1="177.77777777777777" y1="177.77777777777777" x2="133.33333333333331" y2="222.22222222222223"></line><line x1="177.77777777777777" y1="177.77777777777777" x2="222.22222222222223" y2="222.22222222222223"></line><line x1="222.22222222222223" y1="177.77777777777777" x2="177.77777777777777" y2="222.22222222222223"></line><line x1="222.22222222222223" y1="177.77777777777777" x2="266.6666666666667" y2="222.22222222222223"></line><line x1="266.6666666666667" y1="177.77777777777777" x2="222.22222222222223" y2="222.22222222222223"></line><line x1="266.6666666666667" y1="177.77777777777777" x2="311.11111111111114" y2="222.22222222222223"></line><line x1="311.11111111111114" y1="177.77777777777777" x2="266.6666666666667" y2="222.22222222222223"></line><line x1="311.11111111111114" y1="177.77777777777777" x2="355.5555555555556" y2="222.22222222222223"></line><line x1="355.5555555555556" y1="177.77777777777777" x2="311.11111111111114" y2="222.22222222222223"></line><line x1="355.5555555555556" y1="177.77777777777777" x2="400.00000000000006" y2="222.22222222222223"></line><line x1="400.00000000000006" y1="177.77777777777777" x2="355.5555555555556" y2="222.22222222222223"></line><line x1="400.00000000000006" y1="177.77777777777777" x2="444.4444444444445" y2="222.22222222222223"></line><line x1="444.4444444444445" y1="177.77777777777777" x2="400.00000000000006" y2="222.22222222222223"></line><line x1="444.4444444444445" y1="177.77777777777777" x2="488.88888888888897" y2="222.22222222222223"></line><line x1="488.88888888888897" y1="177.77777777777777" x2="444.4444444444445" y2="222.22222222222223"></line><line x1="488.88888888888897" y1="177.77777777777777" x2="533.3333333333334" y2="222.22222222222223"></line><line x1="533.3333333333334" y1="177.77777777777777" x2="488.88888888888897" y2="222.22222222222223"></line><line x1="533.3333333333334" y1="177.77777777777777" x2="577.7777777777778" y2="222.22222222222223"></line><line x1="577.7777777777778" y1="177.77777777777777" x2="533.3333333333334" y2="222.22222222222223"></line><line x1="577.7777777777778" y1="177.77777777777777" x2="622.2222222222223" y2="222.22222222222223"></line><line x1="622.2222222222223" y1="177.77777777777777" x2="577.7777777777778" y2="222.22222222222223"></line><line x1="622.2222222222223" y1="177.77777777777777" x2="666.6666666666667" y2="222.22222222222223"></line><line x1="666.6666666666667" y1="177.77777777777777" x2="622.2222222222223" y2="222.22222222222223"></line><line x1="666.6666666666667" y1="177.77777777777777" x2="711.1111111111112" y2="222.22222222222223"></line><line x1="711.1111111111112" y1="177.77777777777777" x2="666.6666666666667" y2="222.22222222222223"></line><line x1="711.1111111111112" y1="177.77777777777777" x2="755.5555555555557" y2="222.22222222222223"></line><line x1="755.5555555555557" y1="177.77777777777777" x2="711.1111111111112" y2="222.22222222222223"></line><line x1="755.5555555555557" y1="177.77777777777777" x2="800.0000000000001" y2="222.22222222222223"></line><line x1="800.0000000000001" y1="177.77777777777777" x2="755.5555555555557" y2="222.22222222222223"></line><line x1="800.0000000000001" y1="177.77777777777777" x2="844.4444444444446" y2="222.22222222222223"></line><line x1="844.4444444444446" y1="177.77777777777777" x2="800.0000000000001" y2="222.22222222222223"></line><line x1="0" y1="222.22222222222223" x2="44.44444444444444" y2="266.6666666666667"></line><line x1="44.44444444444444" y1="222.22222222222223" x2="0" y2="266.6666666666667"></line><line x1="44.44444444444444" y1="222.22222222222223" x2="88.88888888888889" y2="266.6666666666667"></line><line x1="88.88888888888889" y1="222.22222222222223" x2="44.44444444444444" y2="266.6666666666667"></line><line x1="88.88888888888889" y1="222.22222222222223" x2="133.33333333333331" y2="266.6666666666667"></line><line x1="133.33333333333331" y1="222.22222222222223" x2="88.88888888888889" y2="266.6666666666667"></line><line x1="133.33333333333331" y1="222.22222222222223" x2="177.77777777777777" y2="266.6666666666667"></line><line x1="177.77777777777777" y1="222.22222222222223" x2="133.33333333333331" y2="266.6666666666667"></line><line x1="177.77777777777777" y1="222.22222222222223" x2="222.22222222222223" y2="266.6666666666667"></line><line x1="222.22222222222223" y1="222.22222222222223" x2="177.77777777777777" y2="266.6666666666667"></line><line x1="222.22222222222223" y1="222.22222222222223" x2="266.6666666666667" y2="266.6666666666667"></line><line x1="266.6666666666667" y1="222.22222222222223" x2="222.22222222222223" y2="266.6666666666667"></line><line x1="266.6666666666667" y1="222.22222222222223" x2="311.11111111111114" y2="266.6666666666667"></line><line x1="311.11111111111114" y1="222.22222222222223" x2="266.6666666666667" y2="266.6666666666667"></line><line x1="311.11111111111114" y1="222.22222222222223" x2="355.5555555555556" y2="266.6666666666667"></line><line x1="355.5555555555556" y1="222.22222222222223" x2="311.11111111111114" y2="266.6666666666667"></line><line x1="355.5555555555556" y1="222.22222222222223" x2="400.00000000000006" y2="266.6666666666667"></line><line x1="400.00000000000006" y1="222.22222222222223" x2="355.5555555555556" y2="266.6666666666667"></line><line x1="400.00000000000006" y1="222.22222222222223" x2="444.4444444444445" y2="266.6666666666667"></line><line x1="444.4444444444445" y1="222.22222222222223" x2="400.00000000000006" y2="266.6666666666667"></line><line x1="444.4444444444445" y1="222.22222222222223" x2="488.88888888888897" y2="266.6666666666667"></line><line x1="488.88888888888897" y1="222.22222222222223" x2="444.4444444444445" y2="266.6666666666667"></line><line x1="488.88888888888897" y1="222.22222222222223" x2="533.3333333333334" y2="266.6666666666667"></line><line x1="533.3333333333334" y1="222.22222222222223" x2="488.88888888888897" y2="266.6666666666667"></line><line x1="533.3333333333334" y1="222.22222222222223" x2="577.7777777777778" y2="266.6666666666667"></line><line x1="577.7777777777778" y1="222.22222222222223" x2="533.3333333333334" y2="266.6666666666667"></line><line x1="577.7777777777778" y1="222.22222222222223" x2="622.2222222222223" y2="266.6666666666667"></line><line x1="622.2222222222223" y1="222.22222222222223" x2="577.7777777777778" y2="266.6666666666667"></line><line x1="622.2222222222223" y1="222.22222222222223" x2="666.6666666666667" y2="266.6666666666667"></line><line x1="666.6666666666667" y1="222.22222222222223" x2="622.2222222222223" y2="266.6666666666667"></line><line x1="666.6666666666667" y1="222.22222222222223" x2="711.1111111111112" y2="266.6666666666667"></line><line x1="711.1111111111112" y1="222.22222222222223" x2="666.6666666666667" y2="266.6666666666667"></line><line x1="711.1111111111112" y1="222.22222222222223" x2="755.5555555555557" y2="266.6666666666667"></line><line x1="755.5555555555557" y1="222.22222222222223" x2="711.1111111111112" y2="266.6666666666667"></line><line x1="755.5555555555557" y1="222.22222222222223" x2="800.0000000000001" y2="266.6666666666667"></line><line x1="800.0000000000001" y1="222.22222222222223" x2="755.5555555555557" y2="266.6666666666667"></line><line x1="800.0000000000001" y1="222.22222222222223" x2="844.4444444444446" y2="266.6666666666667"></line><line x1="844.4444444444446" y1="222.22222222222223" x2="800.0000000000001" y2="266.6666666666667"></line><line x1="0" y1="266.6666666666667" x2="44.44444444444444" y2="311.11111111111114"></line><line x1="44.44444444444444" y1="266.6666666666667" x2="0" y2="311.11111111111114"></line><line x1="44.44444444444444" y1="266.6666666666667" x2="88.88888888888889" y2="311.11111111111114"></line><line x1="88.88888888888889" y1="266.6666666666667" x2="44.44444444444444" y2="311.11111111111114"></line><line x1="88.88888888888889" y1="266.6666666666667" x2="133.33333333333331" y2="311.11111111111114"></line><line x1="133.33333333333331" y1="266.6666666666667" x2="88.88888888888889" y2="311.11111111111114"></line><line x1="133.33333333333331" y1="266.6666666666667" x2="177.77777777777777" y2="311.11111111111114"></line><line x1="177.77777777777777" y1="266.6666666666667" x2="133.33333333333331" y2="311.11111111111114"></line><line x1="177.77777777777777" y1="266.6666666666667" x2="222.22222222222223" y2="311.11111111111114"></line><line x1="222.22222222222223" y1="266.6666666666667" x2="177.77777777777777" y2="311.11111111111114"></line><line x1="222.22222222222223" y1="266.6666666666667" x2="266.6666666666667" y2="311.11111111111114"></line><line x1="266.6666666666667" y1="266.6666666666667" x2="222.22222222222223" y2="311.11111111111114"></line><line x1="266.6666666666667" y1="266.6666666666667" x2="311.11111111111114" y2="311.11111111111114"></line><line x1="311.11111111111114" y1="266.6666666666667" x2="266.6666666666667" y2="311.11111111111114"></line><line x1="311.11111111111114" y1="266.6666666666667" x2="355.5555555555556" y2="311.11111111111114"></line><line x1="355.5555555555556" y1="266.6666666666667" x2="311.11111111111114" y2="311.11111111111114"></line><line x1="355.5555555555556" y1="266.6666666666667" x2="400.00000000000006" y2="311.11111111111114"></line><line x1="400.00000000000006" y1="266.6666666666667" x2="355.5555555555556" y2="311.11111111111114"></line><line x1="400.00000000000006" y1="266.6666666666667" x2="444.4444444444445" y2="311.11111111111114"></line><line x1="444.4444444444445" y1="266.6666666666667" x2="400.00000000000006" y2="311.11111111111114"></line><line x1="444.4444444444445" y1="266.6666666666667" x2="488.88888888888897" y2="311.11111111111114"></line><line x1="488.88888888888897" y1="266.6666666666667" x2="444.4444444444445" y2="311.11111111111114"></line><line x1="488.88888888888897" y1="266.6666666666667" x2="533.3333333333334" y2="311.11111111111114"></line><line x1="533.3333333333334" y1="266.6666666666667" x2="488.88888888888897" y2="311.11111111111114"></line><line x1="533.3333333333334" y1="266.6666666666667" x2="577.7777777777778" y2="311.11111111111114"></line><line x1="577.7777777777778" y1="266.6666666666667" x2="533.3333333333334" y2="311.11111111111114"></line><line x1="577.7777777777778" y1="266.6666666666667" x2="622.2222222222223" y2="311.11111111111114"></line><line x1="622.2222222222223" y1="266.6666666666667" x2="577.7777777777778" y2="311.11111111111114"></line><line x1="622.2222222222223" y1="266.6666666666667" x2="666.6666666666667" y2="311.11111111111114"></line><line x1="666.6666666666667" y1="266.6666666666667" x2="622.2222222222223" y2="311.11111111111114"></line><line x1="666.6666666666667" y1="266.6666666666667" x2="711.1111111111112" y2="311.11111111111114"></line><line x1="711.1111111111112" y1="266.6666666666667" x2="666.6666666666667" y2="311.11111111111114"></line><line x1="711.1111111111112" y1="266.6666666666667" x2="755.5555555555557" y2="311.11111111111114"></line><line x1="755.5555555555557" y1="266.6666666666667" x2="711.1111111111112" y2="311.11111111111114"></line><line x1="755.5555555555557" y1="266.6666666666667" x2="800.0000000000001" y2="311.11111111111114"></line><line x1="800.0000000000001" y1="266.6666666666667" x2="755.5555555555557" y2="311.11111111111114"></line><line x1="800.0000000000001" y1="266.6666666666667" x2="844.4444444444446" y2="311.11111111111114"></line><line x1="844.4444444444446" y1="266.6666666666667" x2="800.0000000000001" y2="311.11111111111114"></line><line x1="0" y1="311.11111111111114" x2="44.44444444444444" y2="355.5555555555556"></line><line x1="44.44444444444444" y1="311.11111111111114" x2="0" y2="355.5555555555556"></line><line x1="44.44444444444444" y1="311.11111111111114" x2="88.88888888888889" y2="355.5555555555556"></line><line x1="88.88888888888889" y1="311.11111111111114" x2="44.44444444444444" y2="355.5555555555556"></line><line x1="88.88888888888889" y1="311.11111111111114" x2="133.33333333333331" y2="355.5555555555556"></line><line x1="133.33333333333331" y1="311.11111111111114" x2="88.88888888888889" y2="355.5555555555556"></line><line x1="133.33333333333331" y1="311.11111111111114" x2="177.77777777777777" y2="355.5555555555556"></line><line x1="177.77777777777777" y1="311.11111111111114" x2="133.33333333333331" y2="355.5555555555556"></line><line x1="177.77777777777777" y1="311.11111111111114" x2="222.22222222222223" y2="355.5555555555556"></line><line x1="222.22222222222223" y1="311.11111111111114" x2="177.77777777777777" y2="355.5555555555556"></line><line x1="222.22222222222223" y1="311.11111111111114" x2="266.6666666666667" y2="355.5555555555556"></line><line x1="266.6666666666667" y1="311.11111111111114" x2="222.22222222222223" y2="355.5555555555556"></line><line x1="266.6666666666667" y1="311.11111111111114" x2="311.11111111111114" y2="355.5555555555556"></line><line x1="311.11111111111114" y1="311.11111111111114" x2="266.6666666666667" y2="355.5555555555556"></line><line x1="311.11111111111114" y1="311.11111111111114" x2="355.5555555555556" y2="355.5555555555556"></line><line x1="355.5555555555556" y1="311.11111111111114" x2="311.11111111111114" y2="355.5555555555556"></line><line x1="355.5555555555556" y1="311.11111111111114" x2="400.00000000000006" y2="355.5555555555556"></line><line x1="400.00000000000006" y1="311.11111111111114" x2="355.5555555555556" y2="355.5555555555556"></line><line x1="400.00000000000006" y1="311.11111111111114" x2="444.4444444444445" y2="355.5555555555556"></line><line x1="444.4444444444445" y1="311.11111111111114" x2="400.00000000000006" y2="355.5555555555556"></line><line x1="444.4444444444445" y1="311.11111111111114" x2="488.88888888888897" y2="355.5555555555556"></line><line x1="488.88888888888897" y1="311.11111111111114" x2="444.4444444444445" y2="355.5555555555556"></line><line x1="488.88888888888897" y1="311.11111111111114" x2="533.3333333333334" y2="355.5555555555556"></line><line x1="533.3333333333334" y1="311.11111111111114" x2="488.88888888888897" y2="355.5555555555556"></line><line x1="533.3333333333334" y1="311.11111111111114" x2="577.7777777777778" y2="355.5555555555556"></line><line x1="577.7777777777778" y1="311.11111111111114" x2="533.3333333333334" y2="355.5555555555556"></line><line x1="577.7777777777778" y1="311.11111111111114" x2="622.2222222222223" y2="355.5555555555556"></line><line x1="622.2222222222223" y1="311.11111111111114" x2="577.7777777777778" y2="355.5555555555556"></line><line x1="622.2222222222223" y1="311.11111111111114" x2="666.6666666666667" y2="355.5555555555556"></line><line x1="666.6666666666667" y1="311.11111111111114" x2="622.2222222222223" y2="355.5555555555556"></line><line x1="666.6666666666667" y1="311.11111111111114" x2="711.1111111111112" y2="355.5555555555556"></line><line x1="711.1111111111112" y1="311.11111111111114" x2="666.6666666666667" y2="355.5555555555556"></line><line x1="711.1111111111112" y1="311.11111111111114" x2="755.5555555555557" y2="355.5555555555556"></line><line x1="755.5555555555557" y1="311.11111111111114" x2="711.1111111111112" y2="355.5555555555556"></line><line x1="755.5555555555557" y1="311.11111111111114" x2="800.0000000000001" y2="355.5555555555556"></line><line x1="800.0000000000001" y1="311.11111111111114" x2="755.5555555555557" y2="355.5555555555556"></line><line x1="800.0000000000001" y1="311.11111111111114" x2="844.4444444444446" y2="355.5555555555556"></line><line x1="844.4444444444446" y1="311.11111111111114" x2="800.0000000000001" y2="355.5555555555556"></line><line x1="0" y1="355.5555555555556" x2="44.44444444444444" y2="400.00000000000006"></line><line x1="44.44444444444444" y1="355.5555555555556" x2="0" y2="400.00000000000006"></line><line x1="44.44444444444444" y1="355.5555555555556" x2="88.88888888888889" y2="400.00000000000006"></line><line x1="88.88888888888889" y1="355.5555555555556" x2="44.44444444444444" y2="400.00000000000006"></line><line x1="88.88888888888889" y1="355.5555555555556" x2="133.33333333333331" y2="400.00000000000006"></line><line x1="133.33333333333331" y1="355.5555555555556" x2="88.88888888888889" y2="400.00000000000006"></line><line x1="133.33333333333331" y1="355.5555555555556" x2="177.77777777777777" y2="400.00000000000006"></line><line x1="177.77777777777777" y1="355.5555555555556" x2="133.33333333333331" y2="400.00000000000006"></line><line x1="177.77777777777777" y1="355.5555555555556" x2="222.22222222222223" y2="400.00000000000006"></line><line x1="222.22222222222223" y1="355.5555555555556" x2="177.77777777777777" y2="400.00000000000006"></line><line x1="222.22222222222223" y1="355.5555555555556" x2="266.6666666666667" y2="400.00000000000006"></line><line x1="266.6666666666667" y1="355.5555555555556" x2="222.22222222222223" y2="400.00000000000006"></line><line x1="266.6666666666667" y1="355.5555555555556" x2="311.11111111111114" y2="400.00000000000006"></line><line x1="311.11111111111114" y1="355.5555555555556" x2="266.6666666666667" y2="400.00000000000006"></line><line x1="311.11111111111114" y1="355.5555555555556" x2="355.5555555555556" y2="400.00000000000006"></line><line x1="355.5555555555556" y1="355.5555555555556" x2="311.11111111111114" y2="400.00000000000006"></line><line x1="355.5555555555556" y1="355.5555555555556" x2="400.00000000000006" y2="400.00000000000006"></line><line x1="400.00000000000006" y1="355.5555555555556" x2="355.5555555555556" y2="400.00000000000006"></line><line x1="400.00000000000006" y1="355.5555555555556" x2="444.4444444444445" y2="400.00000000000006"></line><line x1="444.4444444444445" y1="355.5555555555556" x2="400.00000000000006" y2="400.00000000000006"></line><line x1="444.4444444444445" y1="355.5555555555556" x2="488.88888888888897" y2="400.00000000000006"></line><line x1="488.88888888888897" y1="355.5555555555556" x2="444.4444444444445" y2="400.00000000000006"></line><line x1="488.88888888888897" y1="355.5555555555556" x2="533.3333333333334" y2="400.00000000000006"></line><line x1="533.3333333333334" y1="355.5555555555556" x2="488.88888888888897" y2="400.00000000000006"></line><line x1="533.3333333333334" y1="355.5555555555556" x2="577.7777777777778" y2="400.00000000000006"></line><line x1="577.7777777777778" y1="355.5555555555556" x2="533.3333333333334" y2="400.00000000000006"></line><line x1="577.7777777777778" y1="355.5555555555556" x2="622.2222222222223" y2="400.00000000000006"></line><line x1="622.2222222222223" y1="355.5555555555556" x2="577.7777777777778" y2="400.00000000000006"></line><line x1="622.2222222222223" y1="355.5555555555556" x2="666.6666666666667" y2="400.00000000000006"></line><line x1="666.6666666666667" y1="355.5555555555556" x2="622.2222222222223" y2="400.00000000000006"></line><line x1="666.6666666666667" y1="355.5555555555556" x2="711.1111111111112" y2="400.00000000000006"></line><line x1="711.1111111111112" y1="355.5555555555556" x2="666.6666666666667" y2="400.00000000000006"></line><line x1="711.1111111111112" y1="355.5555555555556" x2="755.5555555555557" y2="400.00000000000006"></line><line x1="755.5555555555557" y1="355.5555555555556" x2="711.1111111111112" y2="400.00000000000006"></line><line x1="755.5555555555557" y1="355.5555555555556" x2="800.0000000000001" y2="400.00000000000006"></line><line x1="800.0000000000001" y1="355.5555555555556" x2="755.5555555555557" y2="400.00000000000006"></line><line x1="800.0000000000001" y1="355.5555555555556" x2="844.4444444444446" y2="400.00000000000006"></line><line x1="844.4444444444446" y1="355.5555555555556" x2="800.0000000000001" y2="400.00000000000006"></line><line x1="0" y1="400.00000000000006" x2="44.44444444444444" y2="444.4444444444445"></line><line x1="44.44444444444444" y1="400.00000000000006" x2="0" y2="444.4444444444445"></line><line x1="44.44444444444444" y1="400.00000000000006" x2="88.88888888888889" y2="444.4444444444445"></line><line x1="88.88888888888889" y1="400.00000000000006" x2="44.44444444444444" y2="444.4444444444445"></line><line x1="88.88888888888889" y1="400.00000000000006" x2="133.33333333333331" y2="444.4444444444445"></line><line x1="133.33333333333331" y1="400.00000000000006" x2="88.88888888888889" y2="444.4444444444445"></line><line x1="133.33333333333331" y1="400.00000000000006" x2="177.77777777777777" y2="444.4444444444445"></line><line x1="177.77777777777777" y1="400.00000000000006" x2="133.33333333333331" y2="444.4444444444445"></line><line x1="177.77777777777777" y1="400.00000000000006" x2="222.22222222222223" y2="444.4444444444445"></line><line x1="222.22222222222223" y1="400.00000000000006" x2="177.77777777777777" y2="444.4444444444445"></line><line x1="222.22222222222223" y1="400.00000000000006" x2="266.6666666666667" y2="444.4444444444445"></line><line x1="266.6666666666667" y1="400.00000000000006" x2="222.22222222222223" y2="444.4444444444445"></line><line x1="266.6666666666667" y1="400.00000000000006" x2="311.11111111111114" y2="444.4444444444445"></line><line x1="311.11111111111114" y1="400.00000000000006" x2="266.6666666666667" y2="444.4444444444445"></line><line x1="311.11111111111114" y1="400.00000000000006" x2="355.5555555555556" y2="444.4444444444445"></line><line x1="355.5555555555556" y1="400.00000000000006" x2="311.11111111111114" y2="444.4444444444445"></line><line x1="355.5555555555556" y1="400.00000000000006" x2="400.00000000000006" y2="444.4444444444445"></line><line x1="400.00000000000006" y1="400.00000000000006" x2="355.5555555555556" y2="444.4444444444445"></line><line x1="400.00000000000006" y1="400.00000000000006" x2="444.4444444444445" y2="444.4444444444445"></line><line x1="444.4444444444445" y1="400.00000000000006" x2="400.00000000000006" y2="444.4444444444445"></line><line x1="444.4444444444445" y1="400.00000000000006" x2="488.88888888888897" y2="444.4444444444445"></line><line x1="488.88888888888897" y1="400.00000000000006" x2="444.4444444444445" y2="444.4444444444445"></line><line x1="488.88888888888897" y1="400.00000000000006" x2="533.3333333333334" y2="444.4444444444445"></line><line x1="533.3333333333334" y1="400.00000000000006" x2="488.88888888888897" y2="444.4444444444445"></line><line x1="533.3333333333334" y1="400.00000000000006" x2="577.7777777777778" y2="444.4444444444445"></line><line x1="577.7777777777778" y1="400.00000000000006" x2="533.3333333333334" y2="444.4444444444445"></line><line x1="577.7777777777778" y1="400.00000000000006" x2="622.2222222222223" y2="444.4444444444445"></line><line x1="622.2222222222223" y1="400.00000000000006" x2="577.7777777777778" y2="444.4444444444445"></line><line x1="622.2222222222223" y1="400.00000000000006" x2="666.6666666666667" y2="444.4444444444445"></line><line x1="666.6666666666667" y1="400.00000000000006" x2="622.2222222222223" y2="444.4444444444445"></line><line x1="666.6666666666667" y1="400.00000000000006" x2="711.1111111111112" y2="444.4444444444445"></line><line x1="711.1111111111112" y1="400.00000000000006" x2="666.6666666666667" y2="444.4444444444445"></line><line x1="711.1111111111112" y1="400.00000000000006" x2="755.5555555555557" y2="444.4444444444445"></line><line x1="755.5555555555557" y1="400.00000000000006" x2="711.1111111111112" y2="444.4444444444445"></line><line x1="755.5555555555557" y1="400.00000000000006" x2="800.0000000000001" y2="444.4444444444445"></line><line x1="800.0000000000001" y1="400.00000000000006" x2="755.5555555555557" y2="444.4444444444445"></line><line x1="800.0000000000001" y1="400.00000000000006" x2="844.4444444444446" y2="444.4444444444445"></line><line x1="844.4444444444446" y1="400.00000000000006" x2="800.0000000000001" y2="444.4444444444445"></line><line x1="0" y1="444.4444444444445" x2="44.44444444444444" y2="488.88888888888897"></line><line x1="44.44444444444444" y1="444.4444444444445" x2="0" y2="488.88888888888897"></line><line x1="44.44444444444444" y1="444.4444444444445" x2="88.88888888888889" y2="488.88888888888897"></line><line x1="88.88888888888889" y1="444.4444444444445" x2="44.44444444444444" y2="488.88888888888897"></line><line x1="88.88888888888889" y1="444.4444444444445" x2="133.33333333333331" y2="488.88888888888897"></line><line x1="133.33333333333331" y1="444.4444444444445" x2="88.88888888888889" y2="488.88888888888897"></line><line x1="133.33333333333331" y1="444.4444444444445" x2="177.77777777777777" y2="488.88888888888897"></line><line x1="177.77777777777777" y1="444.4444444444445" x2="133.33333333333331" y2="488.88888888888897"></line><line x1="177.77777777777777" y1="444.4444444444445" x2="222.22222222222223" y2="488.88888888888897"></line><line x1="222.22222222222223" y1="444.4444444444445" x2="177.77777777777777" y2="488.88888888888897"></line><line x1="222.22222222222223" y1="444.4444444444445" x2="266.6666666666667" y2="488.88888888888897"></line><line x1="266.6666666666667" y1="444.4444444444445" x2="222.22222222222223" y2="488.88888888888897"></line><line x1="266.6666666666667" y1="444.4444444444445" x2="311.11111111111114" y2="488.88888888888897"></line><line x1="311.11111111111114" y1="444.4444444444445" x2="266.6666666666667" y2="488.88888888888897"></line><line x1="311.11111111111114" y1="444.4444444444445" x2="355.5555555555556" y2="488.88888888888897"></line><line x1="355.5555555555556" y1="444.4444444444445" x2="311.11111111111114" y2="488.88888888888897"></line><line x1="355.5555555555556" y1="444.4444444444445" x2="400.00000000000006" y2="488.88888888888897"></line><line x1="400.00000000000006" y1="444.4444444444445" x2="355.5555555555556" y2="488.88888888888897"></line><line x1="400.00000000000006" y1="444.4444444444445" x2="444.4444444444445" y2="488.88888888888897"></line><line x1="444.4444444444445" y1="444.4444444444445" x2="400.00000000000006" y2="488.88888888888897"></line><line x1="444.4444444444445" y1="444.4444444444445" x2="488.88888888888897" y2="488.88888888888897"></line><line x1="488.88888888888897" y1="444.4444444444445" x2="444.4444444444445" y2="488.88888888888897"></line><line x1="488.88888888888897" y1="444.4444444444445" x2="533.3333333333334" y2="488.88888888888897"></line><line x1="533.3333333333334" y1="444.4444444444445" x2="488.88888888888897" y2="488.88888888888897"></line><line x1="533.3333333333334" y1="444.4444444444445" x2="577.7777777777778" y2="488.88888888888897"></line><line x1="577.7777777777778" y1="444.4444444444445" x2="533.3333333333334" y2="488.88888888888897"></line><line x1="577.7777777777778" y1="444.4444444444445" x2="622.2222222222223" y2="488.88888888888897"></line><line x1="622.2222222222223" y1="444.4444444444445" x2="577.7777777777778" y2="488.88888888888897"></line><line x1="622.2222222222223" y1="444.4444444444445" x2="666.6666666666667" y2="488.88888888888897"></line><line x1="666.6666666666667" y1="444.4444444444445" x2="622.2222222222223" y2="488.88888888888897"></line><line x1="666.6666666666667" y1="444.4444444444445" x2="711.1111111111112" y2="488.88888888888897"></line><line x1="711.1111111111112" y1="444.4444444444445" x2="666.6666666666667" y2="488.88888888888897"></line><line x1="711.1111111111112" y1="444.4444444444445" x2="755.5555555555557" y2="488.88888888888897"></line><line x1="755.5555555555557" y1="444.4444444444445" x2="711.1111111111112" y2="488.88888888888897"></line><line x1="755.5555555555557" y1="444.4444444444445" x2="800.0000000000001" y2="488.88888888888897"></line><line x1="800.0000000000001" y1="444.4444444444445" x2="755.5555555555557" y2="488.88888888888897"></line><line x1="800.0000000000001" y1="444.4444444444445" x2="844.4444444444446" y2="488.88888888888897"></line><line x1="844.4444444444446" y1="444.4444444444445" x2="800.0000000000001" y2="488.88888888888897"></line><line x1="0" y1="488.88888888888897" x2="44.44444444444444" y2="533.3333333333334"></line><line x1="44.44444444444444" y1="488.88888888888897" x2="0" y2="533.3333333333334"></line><line x1="44.44444444444444" y1="488.88888888888897" x2="88.88888888888889" y2="533.3333333333334"></line><line x1="88.88888888888889" y1="488.88888888888897" x2="44.44444444444444" y2="533.3333333333334"></line><line x1="88.88888888888889" y1="488.88888888888897" x2="133.33333333333331" y2="533.3333333333334"></line><line x1="133.33333333333331" y1="488.88888888888897" x2="88.88888888888889" y2="533.3333333333334"></line><line x1="133.33333333333331" y1="488.88888888888897" x2="177.77777777777777" y2="533.3333333333334"></line><line x1="177.77777777777777" y1="488.88888888888897" x2="133.33333333333331" y2="533.3333333333334"></line><line x1="177.77777777777777" y1="488.88888888888897" x2="222.22222222222223" y2="533.3333333333334"></line><line x1="222.22222222222223" y1="488.88888888888897" x2="177.77777777777777" y2="533.3333333333334"></line><line x1="222.22222222222223" y1="488.88888888888897" x2="266.6666666666667" y2="533.3333333333334"></line><line x1="266.6666666666667" y1="488.88888888888897" x2="222.22222222222223" y2="533.3333333333334"></line><line x1="266.6666666666667" y1="488.88888888888897" x2="311.11111111111114" y2="533.3333333333334"></line><line x1="311.11111111111114" y1="488.88888888888897" x2="266.6666666666667" y2="533.3333333333334"></line><line x1="311.11111111111114" y1="488.88888888888897" x2="355.5555555555556" y2="533.3333333333334"></line><line x1="355.5555555555556" y1="488.88888888888897" x2="311.11111111111114" y2="533.3333333333334"></line><line x1="355.5555555555556" y1="488.88888888888897" x2="400.00000000000006" y2="533.3333333333334"></line><line x1="400.00000000000006" y1="488.88888888888897" x2="355.5555555555556" y2="533.3333333333334"></line><line x1="400.00000000000006" y1="488.88888888888897" x2="444.4444444444445" y2="533.3333333333334"></line><line x1="444.4444444444445" y1="488.88888888888897" x2="400.00000000000006" y2="533.3333333333334"></line><line x1="444.4444444444445" y1="488.88888888888897" x2="488.88888888888897" y2="533.3333333333334"></line><line x1="488.88888888888897" y1="488.88888888888897" x2="444.4444444444445" y2="533.3333333333334"></line><line x1="488.88888888888897" y1="488.88888888888897" x2="533.3333333333334" y2="533.3333333333334"></line><line x1="533.3333333333334" y1="488.88888888888897" x2="488.88888888888897" y2="533.3333333333334"></line><line x1="533.3333333333334" y1="488.88888888888897" x2="577.7777777777778" y2="533.3333333333334"></line><line x1="577.7777777777778" y1="488.88888888888897" x2="533.3333333333334" y2="533.3333333333334"></line><line x1="577.7777777777778" y1="488.88888888888897" x2="622.2222222222223" y2="533.3333333333334"></line><line x1="622.2222222222223" y1="488.88888888888897" x2="577.7777777777778" y2="533.3333333333334"></line><line x1="622.2222222222223" y1="488.88888888888897" x2="666.6666666666667" y2="533.3333333333334"></line><line x1="666.6666666666667" y1="488.88888888888897" x2="622.2222222222223" y2="533.3333333333334"></line><line x1="666.6666666666667" y1="488.88888888888897" x2="711.1111111111112" y2="533.3333333333334"></line><line x1="711.1111111111112" y1="488.88888888888897" x2="666.6666666666667" y2="533.3333333333334"></line><line x1="711.1111111111112" y1="488.88888888888897" x2="755.5555555555557" y2="533.3333333333334"></line><line x1="755.5555555555557" y1="488.88888888888897" x2="711.1111111111112" y2="533.3333333333334"></line><line x1="755.5555555555557" y1="488.88888888888897" x2="800.0000000000001" y2="533.3333333333334"></line><line x1="800.0000000000001" y1="488.88888888888897" x2="755.5555555555557" y2="533.3333333333334"></line><line x1="800.0000000000001" y1="488.88888888888897" x2="844.4444444444446" y2="533.3333333333334"></line><line x1="844.4444444444446" y1="488.88888888888897" x2="800.0000000000001" y2="533.3333333333334"></line><line x1="0" y1="533.3333333333334" x2="44.44444444444444" y2="577.7777777777778"></line><line x1="44.44444444444444" y1="533.3333333333334" x2="0" y2="577.7777777777778"></line><line x1="44.44444444444444" y1="533.3333333333334" x2="88.88888888888889" y2="577.7777777777778"></line><line x1="88.88888888888889" y1="533.3333333333334" x2="44.44444444444444" y2="577.7777777777778"></line><line x1="88.88888888888889" y1="533.3333333333334" x2="133.33333333333331" y2="577.7777777777778"></line><line x1="133.33333333333331" y1="533.3333333333334" x2="88.88888888888889" y2="577.7777777777778"></line><line x1="133.33333333333331" y1="533.3333333333334" x2="177.77777777777777" y2="577.7777777777778"></line><line x1="177.77777777777777" y1="533.3333333333334" x2="133.33333333333331" y2="577.7777777777778"></line><line x1="177.77777777777777" y1="533.3333333333334" x2="222.22222222222223" y2="577.7777777777778"></line><line x1="222.22222222222223" y1="533.3333333333334" x2="177.77777777777777" y2="577.7777777777778"></line><line x1="222.22222222222223" y1="533.3333333333334" x2="266.6666666666667" y2="577.7777777777778"></line><line x1="266.6666666666667" y1="533.3333333333334" x2="222.22222222222223" y2="577.7777777777778"></line><line x1="266.6666666666667" y1="533.3333333333334" x2="311.11111111111114" y2="577.7777777777778"></line><line x1="311.11111111111114" y1="533.3333333333334" x2="266.6666666666667" y2="577.7777777777778"></line><line x1="311.11111111111114" y1="533.3333333333334" x2="355.5555555555556" y2="577.7777777777778"></line><line x1="355.5555555555556" y1="533.3333333333334" x2="311.11111111111114" y2="577.7777777777778"></line><line x1="355.5555555555556" y1="533.3333333333334" x2="400.00000000000006" y2="577.7777777777778"></line><line x1="400.00000000000006" y1="533.3333333333334" x2="355.5555555555556" y2="577.7777777777778"></line><line x1="400.00000000000006" y1="533.3333333333334" x2="444.4444444444445" y2="577.7777777777778"></line><line x1="444.4444444444445" y1="533.3333333333334" x2="400.00000000000006" y2="577.7777777777778"></line><line x1="444.4444444444445" y1="533.3333333333334" x2="488.88888888888897" y2="577.7777777777778"></line><line x1="488.88888888888897" y1="533.3333333333334" x2="444.4444444444445" y2="577.7777777777778"></line><line x1="488.88888888888897" y1="533.3333333333334" x2="533.3333333333334" y2="577.7777777777778"></line><line x1="533.3333333333334" y1="533.3333333333334" x2="488.88888888888897" y2="577.7777777777778"></line><line x1="533.3333333333334" y1="533.3333333333334" x2="577.7777777777778" y2="577.7777777777778"></line><line x1="577.7777777777778" y1="533.3333333333334" x2="533.3333333333334" y2="577.7777777777778"></line><line x1="577.7777777777778" y1="533.3333333333334" x2="622.2222222222223" y2="577.7777777777778"></line><line x1="622.2222222222223" y1="533.3333333333334" x2="577.7777777777778" y2="577.7777777777778"></line><line x1="622.2222222222223" y1="533.3333333333334" x2="666.6666666666667" y2="577.7777777777778"></line><line x1="666.6666666666667" y1="533.3333333333334" x2="622.2222222222223" y2="577.7777777777778"></line><line x1="666.6666666666667" y1="533.3333333333334" x2="711.1111111111112" y2="577.7777777777778"></line><line x1="711.1111111111112" y1="533.3333333333334" x2="666.6666666666667" y2="577.7777777777778"></line><line x1="711.1111111111112" y1="533.3333333333334" x2="755.5555555555557" y2="577.7777777777778"></line><line x1="755.5555555555557" y1="533.3333333333334" x2="711.1111111111112" y2="577.7777777777778"></line><line x1="755.5555555555557" y1="533.3333333333334" x2="800.0000000000001" y2="577.7777777777778"></line><line x1="800.0000000000001" y1="533.3333333333334" x2="755.5555555555557" y2="577.7777777777778"></line><line x1="800.0000000000001" y1="533.3333333333334" x2="844.4444444444446" y2="577.7777777777778"></line><line x1="844.4444444444446" y1="533.3333333333334" x2="800.0000000000001" y2="577.7777777777778"></line><line x1="0" y1="577.7777777777778" x2="44.44444444444444" y2="622.2222222222223"></line><line x1="44.44444444444444" y1="577.7777777777778" x2="0" y2="622.2222222222223"></line><line x1="44.44444444444444" y1="577.7777777777778" x2="88.88888888888889" y2="622.2222222222223"></line><line x1="88.88888888888889" y1="577.7777777777778" x2="44.44444444444444" y2="622.2222222222223"></line><line x1="88.88888888888889" y1="577.7777777777778" x2="133.33333333333331" y2="622.2222222222223"></line><line x1="133.33333333333331" y1="577.7777777777778" x2="88.88888888888889" y2="622.2222222222223"></line><line x1="133.33333333333331" y1="577.7777777777778" x2="177.77777777777777" y2="622.2222222222223"></line><line x1="177.77777777777777" y1="577.7777777777778" x2="133.33333333333331" y2="622.2222222222223"></line><line x1="177.77777777777777" y1="577.7777777777778" x2="222.22222222222223" y2="622.2222222222223"></line><line x1="222.22222222222223" y1="577.7777777777778" x2="177.77777777777777" y2="622.2222222222223"></line><line x1="222.22222222222223" y1="577.7777777777778" x2="266.6666666666667" y2="622.2222222222223"></line><line x1="266.6666666666667" y1="577.7777777777778" x2="222.22222222222223" y2="622.2222222222223"></line><line x1="266.6666666666667" y1="577.7777777777778" x2="311.11111111111114" y2="622.2222222222223"></line><line x1="311.11111111111114" y1="577.7777777777778" x2="266.6666666666667" y2="622.2222222222223"></line><line x1="311.11111111111114" y1="577.7777777777778" x2="355.5555555555556" y2="622.2222222222223"></line><line x1="355.5555555555556" y1="577.7777777777778" x2="311.11111111111114" y2="622.2222222222223"></line><line x1="355.5555555555556" y1="577.7777777777778" x2="400.00000000000006" y2="622.2222222222223"></line><line x1="400.00000000000006" y1="577.7777777777778" x2="355.5555555555556" y2="622.2222222222223"></line><line x1="400.00000000000006" y1="577.7777777777778" x2="444.4444444444445" y2="622.2222222222223"></line><line x1="444.4444444444445" y1="577.7777777777778" x2="400.00000000000006" y2="622.2222222222223"></line><line x1="444.4444444444445" y1="577.7777777777778" x2="488.88888888888897" y2="622.2222222222223"></line><line x1="488.88888888888897" y1="577.7777777777778" x2="444.4444444444445" y2="622.2222222222223"></line><line x1="488.88888888888897" y1="577.7777777777778" x2="533.3333333333334" y2="622.2222222222223"></line><line x1="533.3333333333334" y1="577.7777777777778" x2="488.88888888888897" y2="622.2222222222223"></line><line x1="533.3333333333334" y1="577.7777777777778" x2="577.7777777777778" y2="622.2222222222223"></line><line x1="577.7777777777778" y1="577.7777777777778" x2="533.3333333333334" y2="622.2222222222223"></line><line x1="577.7777777777778" y1="577.7777777777778" x2="622.2222222222223" y2="622.2222222222223"></line><line x1="622.2222222222223" y1="577.7777777777778" x2="577.7777777777778" y2="622.2222222222223"></line><line x1="622.2222222222223" y1="577.7777777777778" x2="666.6666666666667" y2="622.2222222222223"></line><line x1="666.6666666666667" y1="577.7777777777778" x2="622.2222222222223" y2="622.2222222222223"></line><line x1="666.6666666666667" y1="577.7777777777778" x2="711.1111111111112" y2="622.2222222222223"></line><line x1="711.1111111111112" y1="577.7777777777778" x2="666.6666666666667" y2="622.2222222222223"></line><line x1="711.1111111111112" y1="577.7777777777778" x2="755.5555555555557" y2="622.2222222222223"></line><line x1="755.5555555555557" y1="577.7777777777778" x2="711.1111111111112" y2="622.2222222222223"></line><line x1="755.5555555555557" y1="577.7777777777778" x2="800.0000000000001" y2="622.2222222222223"></line><line x1="800.0000000000001" y1="577.7777777777778" x2="755.5555555555557" y2="622.2222222222223"></line><line x1="800.0000000000001" y1="577.7777777777778" x2="844.4444444444446" y2="622.2222222222223"></line><line x1="844.4444444444446" y1="577.7777777777778" x2="800.0000000000001" y2="622.2222222222223"></line><line x1="0" y1="622.2222222222223" x2="44.44444444444444" y2="666.6666666666667"></line><line x1="44.44444444444444" y1="622.2222222222223" x2="0" y2="666.6666666666667"></line><line x1="44.44444444444444" y1="622.2222222222223" x2="88.88888888888889" y2="666.6666666666667"></line><line x1="88.88888888888889" y1="622.2222222222223" x2="44.44444444444444" y2="666.6666666666667"></line><line x1="88.88888888888889" y1="622.2222222222223" x2="133.33333333333331" y2="666.6666666666667"></line><line x1="133.33333333333331" y1="622.2222222222223" x2="88.88888888888889" y2="666.6666666666667"></line><line x1="133.33333333333331" y1="622.2222222222223" x2="177.77777777777777" y2="666.6666666666667"></line><line x1="177.77777777777777" y1="622.2222222222223" x2="133.33333333333331" y2="666.6666666666667"></line><line x1="177.77777777777777" y1="622.2222222222223" x2="222.22222222222223" y2="666.6666666666667"></line><line x1="222.22222222222223" y1="622.2222222222223" x2="177.77777777777777" y2="666.6666666666667"></line><line x1="222.22222222222223" y1="622.2222222222223" x2="266.6666666666667" y2="666.6666666666667"></line><line x1="266.6666666666667" y1="622.2222222222223" x2="222.22222222222223" y2="666.6666666666667"></line><line x1="266.6666666666667" y1="622.2222222222223" x2="311.11111111111114" y2="666.6666666666667"></line><line x1="311.11111111111114" y1="622.2222222222223" x2="266.6666666666667" y2="666.6666666666667"></line><line x1="311.11111111111114" y1="622.2222222222223" x2="355.5555555555556" y2="666.6666666666667"></line><line x1="355.5555555555556" y1="622.2222222222223" x2="311.11111111111114" y2="666.6666666666667"></line><line x1="355.5555555555556" y1="622.2222222222223" x2="400.00000000000006" y2="666.6666666666667"></line><line x1="400.00000000000006" y1="622.2222222222223" x2="355.5555555555556" y2="666.6666666666667"></line><line x1="400.00000000000006" y1="622.2222222222223" x2="444.4444444444445" y2="666.6666666666667"></line><line x1="444.4444444444445" y1="622.2222222222223" x2="400.00000000000006" y2="666.6666666666667"></line><line x1="444.4444444444445" y1="622.2222222222223" x2="488.88888888888897" y2="666.6666666666667"></line><line x1="488.88888888888897" y1="622.2222222222223" x2="444.4444444444445" y2="666.6666666666667"></line><line x1="488.88888888888897" y1="622.2222222222223" x2="533.3333333333334" y2="666.6666666666667"></line><line x1="533.3333333333334" y1="622.2222222222223" x2="488.88888888888897" y2="666.6666666666667"></line><line x1="533.3333333333334" y1="622.2222222222223" x2="577.7777777777778" y2="666.6666666666667"></line><line x1="577.7777777777778" y1="622.2222222222223" x2="533.3333333333334" y2="666.6666666666667"></line><line x1="577.7777777777778" y1="622.2222222222223" x2="622.2222222222223" y2="666.6666666666667"></line><line x1="622.2222222222223" y1="622.2222222222223" x2="577.7777777777778" y2="666.6666666666667"></line><line x1="622.2222222222223" y1="622.2222222222223" x2="666.6666666666667" y2="666.6666666666667"></line><line x1="666.6666666666667" y1="622.2222222222223" x2="622.2222222222223" y2="666.6666666666667"></line><line x1="666.6666666666667" y1="622.2222222222223" x2="711.1111111111112" y2="666.6666666666667"></line><line x1="711.1111111111112" y1="622.2222222222223" x2="666.6666666666667" y2="666.6666666666667"></line><line x1="711.1111111111112" y1="622.2222222222223" x2="755.5555555555557" y2="666.6666666666667"></line><line x1="755.5555555555557" y1="622.2222222222223" x2="711.1111111111112" y2="666.6666666666667"></line><line x1="755.5555555555557" y1="622.2222222222223" x2="800.0000000000001" y2="666.6666666666667"></line><line x1="800.0000000000001" y1="622.2222222222223" x2="755.5555555555557" y2="666.6666666666667"></line><line x1="800.0000000000001" y1="622.2222222222223" x2="844.4444444444446" y2="666.6666666666667"></line><line x1="844.4444444444446" y1="622.2222222222223" x2="800.0000000000001" y2="666.6666666666667"></line><line x1="0" y1="666.6666666666667" x2="44.44444444444444" y2="711.1111111111112"></line><line x1="44.44444444444444" y1="666.6666666666667" x2="0" y2="711.1111111111112"></line><line x1="44.44444444444444" y1="666.6666666666667" x2="88.88888888888889" y2="711.1111111111112"></line><line x1="88.88888888888889" y1="666.6666666666667" x2="44.44444444444444" y2="711.1111111111112"></line><line x1="88.88888888888889" y1="666.6666666666667" x2="133.33333333333331" y2="711.1111111111112"></line><line x1="133.33333333333331" y1="666.6666666666667" x2="88.88888888888889" y2="711.1111111111112"></line><line x1="133.33333333333331" y1="666.6666666666667" x2="177.77777777777777" y2="711.1111111111112"></line><line x1="177.77777777777777" y1="666.6666666666667" x2="133.33333333333331" y2="711.1111111111112"></line><line x1="177.77777777777777" y1="666.6666666666667" x2="222.22222222222223" y2="711.1111111111112"></line><line x1="222.22222222222223" y1="666.6666666666667" x2="177.77777777777777" y2="711.1111111111112"></line><line x1="222.22222222222223" y1="666.6666666666667" x2="266.6666666666667" y2="711.1111111111112"></line><line x1="266.6666666666667" y1="666.6666666666667" x2="222.22222222222223" y2="711.1111111111112"></line><line x1="266.6666666666667" y1="666.6666666666667" x2="311.11111111111114" y2="711.1111111111112"></line><line x1="311.11111111111114" y1="666.6666666666667" x2="266.6666666666667" y2="711.1111111111112"></line><line x1="311.11111111111114" y1="666.6666666666667" x2="355.5555555555556" y2="711.1111111111112"></line><line x1="355.5555555555556" y1="666.6666666666667" x2="311.11111111111114" y2="711.1111111111112"></line><line x1="355.5555555555556" y1="666.6666666666667" x2="400.00000000000006" y2="711.1111111111112"></line><line x1="400.00000000000006" y1="666.6666666666667" x2="355.5555555555556" y2="711.1111111111112"></line><line x1="400.00000000000006" y1="666.6666666666667" x2="444.4444444444445" y2="711.1111111111112"></line><line x1="444.4444444444445" y1="666.6666666666667" x2="400.00000000000006" y2="711.1111111111112"></line><line x1="444.4444444444445" y1="666.6666666666667" x2="488.88888888888897" y2="711.1111111111112"></line><line x1="488.88888888888897" y1="666.6666666666667" x2="444.4444444444445" y2="711.1111111111112"></line><line x1="488.88888888888897" y1="666.6666666666667" x2="533.3333333333334" y2="711.1111111111112"></line><line x1="533.3333333333334" y1="666.6666666666667" x2="488.88888888888897" y2="711.1111111111112"></line><line x1="533.3333333333334" y1="666.6666666666667" x2="577.7777777777778" y2="711.1111111111112"></line><line x1="577.7777777777778" y1="666.6666666666667" x2="533.3333333333334" y2="711.1111111111112"></line><line x1="577.7777777777778" y1="666.6666666666667" x2="622.2222222222223" y2="711.1111111111112"></line><line x1="622.2222222222223" y1="666.6666666666667" x2="577.7777777777778" y2="711.1111111111112"></line><line x1="622.2222222222223" y1="666.6666666666667" x2="666.6666666666667" y2="711.1111111111112"></line><line x1="666.6666666666667" y1="666.6666666666667" x2="622.2222222222223" y2="711.1111111111112"></line><line x1="666.6666666666667" y1="666.6666666666667" x2="711.1111111111112" y2="711.1111111111112"></line><line x1="711.1111111111112" y1="666.6666666666667" x2="666.6666666666667" y2="711.1111111111112"></line><line x1="711.1111111111112" y1="666.6666666666667" x2="755.5555555555557" y2="711.1111111111112"></line><line x1="755.5555555555557" y1="666.6666666666667" x2="711.1111111111112" y2="711.1111111111112"></line><line x1="755.5555555555557" y1="666.6666666666667" x2="800.0000000000001" y2="711.1111111111112"></line><line x1="800.0000000000001" y1="666.6666666666667" x2="755.5555555555557" y2="711.1111111111112"></line><line x1="800.0000000000001" y1="666.6666666666667" x2="844.4444444444446" y2="711.1111111111112"></line><line x1="844.4444444444446" y1="666.6666666666667" x2="800.0000000000001" y2="711.1111111111112"></line><line x1="0" y1="711.1111111111112" x2="44.44444444444444" y2="755.5555555555557"></line><line x1="44.44444444444444" y1="711.1111111111112" x2="0" y2="755.5555555555557"></line><line x1="44.44444444444444" y1="711.1111111111112" x2="88.88888888888889" y2="755.5555555555557"></line><line x1="88.88888888888889" y1="711.1111111111112" x2="44.44444444444444" y2="755.5555555555557"></line><line x1="88.88888888888889" y1="711.1111111111112" x2="133.33333333333331" y2="755.5555555555557"></line><line x1="133.33333333333331" y1="711.1111111111112" x2="88.88888888888889" y2="755.5555555555557"></line><line x1="133.33333333333331" y1="711.1111111111112" x2="177.77777777777777" y2="755.5555555555557"></line><line x1="177.77777777777777" y1="711.1111111111112" x2="133.33333333333331" y2="755.5555555555557"></line><line x1="177.77777777777777" y1="711.1111111111112" x2="222.22222222222223" y2="755.5555555555557"></line><line x1="222.22222222222223" y1="711.1111111111112" x2="177.77777777777777" y2="755.5555555555557"></line><line x1="222.22222222222223" y1="711.1111111111112" x2="266.6666666666667" y2="755.5555555555557"></line><line x1="266.6666666666667" y1="711.1111111111112" x2="222.22222222222223" y2="755.5555555555557"></line><line x1="266.6666666666667" y1="711.1111111111112" x2="311.11111111111114" y2="755.5555555555557"></line><line x1="311.11111111111114" y1="711.1111111111112" x2="266.6666666666667" y2="755.5555555555557"></line><line x1="311.11111111111114" y1="711.1111111111112" x2="355.5555555555556" y2="755.5555555555557"></line><line x1="355.5555555555556" y1="711.1111111111112" x2="311.11111111111114" y2="755.5555555555557"></line><line x1="355.5555555555556" y1="711.1111111111112" x2="400.00000000000006" y2="755.5555555555557"></line><line x1="400.00000000000006" y1="711.1111111111112" x2="355.5555555555556" y2="755.5555555555557"></line><line x1="400.00000000000006" y1="711.1111111111112" x2="444.4444444444445" y2="755.5555555555557"></line><line x1="444.4444444444445" y1="711.1111111111112" x2="400.00000000000006" y2="755.5555555555557"></line><line x1="444.4444444444445" y1="711.1111111111112" x2="488.88888888888897" y2="755.5555555555557"></line><line x1="488.88888888888897" y1="711.1111111111112" x2="444.4444444444445" y2="755.5555555555557"></line><line x1="488.88888888888897" y1="711.1111111111112" x2="533.3333333333334" y2="755.5555555555557"></line><line x1="533.3333333333334" y1="711.1111111111112" x2="488.88888888888897" y2="755.5555555555557"></line><line x1="533.3333333333334" y1="711.1111111111112" x2="577.7777777777778" y2="755.5555555555557"></line><line x1="577.7777777777778" y1="711.1111111111112" x2="533.3333333333334" y2="755.5555555555557"></line><line x1="577.7777777777778" y1="711.1111111111112" x2="622.2222222222223" y2="755.5555555555557"></line><line x1="622.2222222222223" y1="711.1111111111112" x2="577.7777777777778" y2="755.5555555555557"></line><line x1="622.2222222222223" y1="711.1111111111112" x2="666.6666666666667" y2="755.5555555555557"></line><line x1="666.6666666666667" y1="711.1111111111112" x2="622.2222222222223" y2="755.5555555555557"></line><line x1="666.6666666666667" y1="711.1111111111112" x2="711.1111111111112" y2="755.5555555555557"></line><line x1="711.1111111111112" y1="711.1111111111112" x2="666.6666666666667" y2="755.5555555555557"></line><line x1="711.1111111111112" y1="711.1111111111112" x2="755.5555555555557" y2="755.5555555555557"></line><line x1="755.5555555555557" y1="711.1111111111112" x2="711.1111111111112" y2="755.5555555555557"></line><line x1="755.5555555555557" y1="711.1111111111112" x2="800.0000000000001" y2="755.5555555555557"></line><line x1="800.0000000000001" y1="711.1111111111112" x2="755.5555555555557" y2="755.5555555555557"></line><line x1="800.0000000000001" y1="711.1111111111112" x2="844.4444444444446" y2="755.5555555555557"></line><line x1="844.4444444444446" y1="711.1111111111112" x2="800.0000000000001" y2="755.5555555555557"></line><line x1="0" y1="755.5555555555557" x2="44.44444444444444" y2="800.0000000000001"></line><line x1="44.44444444444444" y1="755.5555555555557" x2="0" y2="800.0000000000001"></line><line x1="44.44444444444444" y1="755.5555555555557" x2="88.88888888888889" y2="800.0000000000001"></line><line x1="88.88888888888889" y1="755.5555555555557" x2="44.44444444444444" y2="800.0000000000001"></line><line x1="88.88888888888889" y1="755.5555555555557" x2="133.33333333333331" y2="800.0000000000001"></line><line x1="133.33333333333331" y1="755.5555555555557" x2="88.88888888888889" y2="800.0000000000001"></line><line x1="133.33333333333331" y1="755.5555555555557" x2="177.77777777777777" y2="800.0000000000001"></line><line x1="177.77777777777777" y1="755.5555555555557" x2="133.33333333333331" y2="800.0000000000001"></line><line x1="177.77777777777777" y1="755.5555555555557" x2="222.22222222222223" y2="800.0000000000001"></line><line x1="222.22222222222223" y1="755.5555555555557" x2="177.77777777777777" y2="800.0000000000001"></line><line x1="222.22222222222223" y1="755.5555555555557" x2="266.6666666666667" y2="800.0000000000001"></line><line x1="266.6666666666667" y1="755.5555555555557" x2="222.22222222222223" y2="800.0000000000001"></line><line x1="266.6666666666667" y1="755.5555555555557" x2="311.11111111111114" y2="800.0000000000001"></line><line x1="311.11111111111114" y1="755.5555555555557" x2="266.6666666666667" y2="800.0000000000001"></line><line x1="311.11111111111114" y1="755.5555555555557" x2="355.5555555555556" y2="800.0000000000001"></line><line x1="355.5555555555556" y1="755.5555555555557" x2="311.11111111111114" y2="800.0000000000001"></line><line x1="355.5555555555556" y1="755.5555555555557" x2="400.00000000000006" y2="800.0000000000001"></line><line x1="400.00000000000006" y1="755.5555555555557" x2="355.5555555555556" y2="800.0000000000001"></line><line x1="400.00000000000006" y1="755.5555555555557" x2="444.4444444444445" y2="800.0000000000001"></line><line x1="444.4444444444445" y1="755.5555555555557" x2="400.00000000000006" y2="800.0000000000001"></line><line x1="444.4444444444445" y1="755.5555555555557" x2="488.88888888888897" y2="800.0000000000001"></line><line x1="488.88888888888897" y1="755.5555555555557" x2="444.4444444444445" y2="800.0000000000001"></line><line x1="488.88888888888897" y1="755.5555555555557" x2="533.3333333333334" y2="800.0000000000001"></line><line x1="533.3333333333334" y1="755.5555555555557" x2="488.88888888888897" y2="800.0000000000001"></line><line x1="533.3333333333334" y1="755.5555555555557" x2="577.7777777777778" y2="800.0000000000001"></line><line x1="577.7777777777778" y1="755.5555555555557" x2="533.3333333333334" y2="800.0000000000001"></line><line x1="577.7777777777778" y1="755.5555555555557" x2="622.2222222222223" y2="800.0000000000001"></line><line x1="622.2222222222223" y1="755.5555555555557" x2="577.7777777777778" y2="800.0000000000001"></line><line x1="622.2222222222223" y1="755.5555555555557" x2="666.6666666666667" y2="800.0000000000001"></line><line x1="666.6666666666667" y1="755.5555555555557" x2="622.2222222222223" y2="800.0000000000001"></line><line x1="666.6666666666667" y1="755.5555555555557" x2="711.1111111111112" y2="800.0000000000001"></line><line x1="711.1111111111112" y1="755.5555555555557" x2="666.6666666666667" y2="800.0000000000001"></line><line x1="711.1111111111112" y1="755.5555555555557" x2="755.5555555555557" y2="800.0000000000001"></line><line x1="755.5555555555557" y1="755.5555555555557" x2="711.1111111111112" y2="800.0000000000001"></line><line x1="755.5555555555557" y1="755.5555555555557" x2="800.0000000000001" y2="800.0000000000001"></line><line x1="800.0000000000001" y1="755.5555555555557" x2="755.5555555555557" y2="800.0000000000001"></line><line x1="800.0000000000001" y1="755.5555555555557" x2="844.4444444444446" y2="800.0000000000001"></line><line x1="844.4444444444446" y1="755.5555555555557" x2="800.0000000000001" y2="800.0000000000001"></line><line x1="0" y1="800.0000000000001" x2="44.44444444444444" y2="844.4444444444446"></line><line x1="44.44444444444444" y1="800.0000000000001" x2="0" y2="844.4444444444446"></line><line x1="44.44444444444444" y1="800.0000000000001" x2="88.88888888888889" y2="844.4444444444446"></line><line x1="88.88888888888889" y1="800.0000000000001" x2="44.44444444444444" y2="844.4444444444446"></line><line x1="88.88888888888889" y1="800.0000000000001" x2="133.33333333333331" y2="844.4444444444446"></line><line x1="133.33333333333331" y1="800.0000000000001" x2="88.88888888888889" y2="844.4444444444446"></line><line x1="133.33333333333331" y1="800.0000000000001" x2="177.77777777777777" y2="844.4444444444446"></line><line x1="177.77777777777777" y1="800.0000000000001" x2="133.33333333333331" y2="844.4444444444446"></line><line x1="177.77777777777777" y1="800.0000000000001" x2="222.22222222222223" y2="844.4444444444446"></line><line x1="222.22222222222223" y1="800.0000000000001" x2="177.77777777777777" y2="844.4444444444446"></line><line x1="222.22222222222223" y1="800.0000000000001" x2="266.6666666666667" y2="844.4444444444446"></line><line x1="266.6666666666667" y1="800.0000000000001" x2="222.22222222222223" y2="844.4444444444446"></line><line x1="266.6666666666667" y1="800.0000000000001" x2="311.11111111111114" y2="844.4444444444446"></line><line x1="311.11111111111114" y1="800.0000000000001" x2="266.6666666666667" y2="844.4444444444446"></line><line x1="311.11111111111114" y1="800.0000000000001" x2="355.5555555555556" y2="844.4444444444446"></line><line x1="355.5555555555556" y1="800.0000000000001" x2="311.11111111111114" y2="844.4444444444446"></line><line x1="355.5555555555556" y1="800.0000000000001" x2="400.00000000000006" y2="844.4444444444446"></line><line x1="400.00000000000006" y1="800.0000000000001" x2="355.5555555555556" y2="844.4444444444446"></line><line x1="400.00000000000006" y1="800.0000000000001" x2="444.4444444444445" y2="844.4444444444446"></line><line x1="444.4444444444445" y1="800.0000000000001" x2="400.00000000000006" y2="844.4444444444446"></line><line x1="444.4444444444445" y1="800.0000000000001" x2="488.88888888888897" y2="844.4444444444446"></line><line x1="488.88888888888897" y1="800.0000000000001" x2="444.4444444444445" y2="844.4444444444446"></line><line x1="488.88888888888897" y1="800.0000000000001" x2="533.3333333333334" y2="844.4444444444446"></line><line x1="533.3333333333334" y1="800.0000000000001" x2="488.88888888888897" y2="844.4444444444446"></line><line x1="533.3333333333334" y1="800.0000000000001" x2="577.7777777777778" y2="844.4444444444446"></line><line x1="577.7777777777778" y1="800.0000000000001" x2="533.3333333333334" y2="844.4444444444446"></line><line x1="577.7777777777778" y1="800.0000000000001" x2="622.2222222222223" y2="844.4444444444446"></line><line x1="622.2222222222223" y1="800.0000000000001" x2="577.7777777777778" y2="844.4444444444446"></line><line x1="622.2222222222223" y1="800.0000000000001" x2="666.6666666666667" y2="844.4444444444446"></line><line x1="666.6666666666667" y1="800.0000000000001" x2="622.2222222222223" y2="844.4444444444446"></line><line x1="666.6666666666667" y1="800.0000000000001" x2="711.1111111111112" y2="844.4444444444446"></line><line x1="711.1111111111112" y1="800.0000000000001" x2="666.6666666666667" y2="844.4444444444446"></line><line x1="711.1111111111112" y1="800.0000000000001" x2="755.5555555555557" y2="844.4444444444446"></line><line x1="755.5555555555557" y1="800.0000000000001" x2="711.1111111111112" y2="844.4444444444446"></line><line x1="755.5555555555557" y1="800.0000000000001" x2="800.0000000000001" y2="844.4444444444446"></line><line x1="800.0000000000001" y1="800.0000000000001" x2="755.5555555555557" y2="844.4444444444446"></line><line x1="800.0000000000001" y1="800.0000000000001" x2="844.4444444444446" y2="844.4444444444446"></line><line x1="844.4444444444446" y1="800.0000000000001" x2="800.0000000000001" y2="844.4444444444446"></line></g></svg>